<?xml version="1.0" encoding="UTF-8"?>
<svg width="512px" height="512px" viewBox="0 0 512 512" version="1.1" xmlns="http://www.w3.org/2000/svg" xmlns:xlink="http://www.w3.org/1999/xlink">
    <title>target</title>
    <g id="Page-1" stroke="none" stroke-width="1" fill="none" fill-rule="evenodd">
        <g id="Artboard" transform="translate(-1391.000000, -191.000000)" fill-rule="nonzero">
            <g id="target" transform="translate(1391.000000, 191.000000)">
                <path d="M502.203,85.791 L446.744,65.256 L426.209,9.797 C422.412,-0.459 409.269,-3.334 401.536,4.399 L352.037,53.896 C348.383,57.55 346.867,62.827 348.025,67.863 L362.023,128.764 L383.237,149.978 L444.138,163.976 C449.174,165.134 454.451,163.617 458.105,159.964 L507.602,110.465 C515.334,102.73 512.459,89.588 502.203,85.791 L502.203,85.791 Z" id="Path" fill="#4C82A9"></path>
                <path d="M383.237,149.977 L444.138,163.975 C449.174,165.133 454.451,163.617 458.105,159.963 L507.602,110.464 C515.335,102.731 512.459,89.588 502.204,85.791 L446.745,65.256 L372.63,139.37 L383.237,149.977 Z" id="Path" fill="#3E6A89"></path>
                <circle id="Oval" fill="#DF8768" cx="205" cy="307" r="190"></circle>
                <path d="M205,117 L205,497 C309.934,497 395,411.934 395,307 C395,202.066 309.934,117 205,117 Z" id="Path" fill="#DF8768"></path>
                <g id="Group" transform="translate(0.000000, 28.000000)">
                    <path d="M205,484 C91.963,484 0,392.037 0,279 C0,165.963 91.963,74 205,74 C318.037,74 410,165.963 410,279 C410,392.037 318.037,484 205,484 Z M205,104 C108.505,104 30,182.505 30,279 C30,375.495 108.505,454 205,454 C301.495,454 380,375.495 380,279 C380,182.505 301.495,104 205,104 Z" id="Shape" fill="#FDF5EC"></path>
                    <path d="M205,74 L205,104 C301.495,104 380,182.505 380,279 C380,375.495 301.495,454 205,454 L205,484 C318.037,484 410,392.037 410,279 C410,165.963 318.037,74 205,74 Z" id="Path" fill="#FAE7D1"></path>
                    <path d="M205,414 C130.561,414 70,353.439 70,279 C70,204.561 130.561,144 205,144 C279.439,144 340,204.561 340,279 C340,353.439 279.439,414 205,414 Z M205,174 C147.103,174 100,221.103 100,279 C100,336.897 147.103,384 205,384 C262.897,384 310,336.897 310,279 C310,221.103 262.897,174 205,174 Z" id="Shape" fill="#FDF5EC"></path>
                    <path d="M205,144 L205,174 C262.897,174 310,221.103 310,279 C310,336.897 262.897,384 205,384 L205,414 C279.439,414 340,353.439 340,279 C340,204.561 279.439,144 205,144 Z" id="Path" fill="#FAE7D1"></path>
                    <path d="M205,344 C169.159,344 140,314.841 140,279 C140,243.159 169.159,214 205,214 C240.841,214 270,243.159 270,279 C270,314.841 240.841,344 205,344 Z M205,244 C185.701,244 170,259.701 170,279 C170,298.299 185.701,314 205,314 C224.299,314 240,298.299 240,279 C240,259.701 224.299,244 205,244 Z" id="Shape" fill="#FDF5EC"></path>
                    <path d="M205,214 L205,244 C224.299,244 240,259.701 240,279 C240,298.299 224.299,314 205,314 L205,344 C240.841,344 270,314.841 270,279 C270,243.159 240.841,214 205,214 Z" id="Path" fill="#FAE7D1"></path>
                    <path d="M194.394,289.606 C188.536,283.748 188.536,274.251 194.394,268.393 L458.109,4.678 C463.967,-1.18 473.464,-1.18 479.322,4.678 C485.18,10.536 485.18,20.033 479.322,25.891 L215.606,289.606 C209.749,295.464 200.251,295.464 194.394,289.606 Z" id="Path" fill="#FFE200"></path>
                    <path d="M215.606,289.606 L479.322,25.891 C485.18,20.033 485.18,10.536 479.322,4.678 L194.394,289.606 C200.251,295.464 209.749,295.464 215.606,289.606 Z" id="Path" fill="#FFF07C"></path>
                </g>
            </g>
        </g>
    </g>
</svg>