<?xml version="1.0" encoding="UTF-8"?>
<svg width="506px" height="512px" viewBox="0 0 506 512" version="1.1" xmlns="http://www.w3.org/2000/svg" xmlns:xlink="http://www.w3.org/1999/xlink">
    <title>teamwork</title>
    <g id="Page-1" stroke="none" stroke-width="1" fill="none" fill-rule="evenodd">
        <g id="Artboard" transform="translate(-756.000000, -191.000000)" fill-rule="nonzero">
            <g id="teamwork" transform="translate(756.000000, 191.000000)">
                <path d="M487.404,436.061 L453.556,426.391 C450.011,425.378 447.566,422.138 447.566,418.451 L447.566,404.646 L398.018,404.646 L398.018,418.45 C398.018,422.137 395.574,425.377 392.029,426.39 L358.18,436.061 C347.544,439.1 340.212,448.821 340.212,459.882 L340.212,503.742 C340.212,508.303 343.909,512 348.47,512 L497.115,512 C501.676,512 505.373,508.303 505.373,503.742 L505.373,459.882 C505.373,448.821 498.04,439.1 487.404,436.061 Z" id="Path" fill="#E6AF78"></path>
                <path d="M487.404,436.061 L456.449,427.217 C451.804,442.028 438.134,452.847 421.79,452.847 C405.639,452.847 392.097,442.283 387.295,427.743 L358.18,436.062 C347.544,439.101 340.212,448.822 340.212,459.883 L340.212,503.743 C340.212,508.303 343.909,512.001 348.47,512.001 L497.115,512.001 C501.675,512.001 505.373,508.303 505.373,503.743 L505.373,459.883 C505.373,448.821 498.04,439.1 487.404,436.061 Z" id="Path" fill="#FFF07C"></path>
                <path d="M364.986,313.806 L364.986,319.601 C364.986,326.702 366.131,333.756 368.376,340.492 L381.502,379.87 L406.276,379.87 L406.276,289.031 L389.76,289.031 C376.078,289.032 364.986,300.124 364.986,313.806 Z" id="Path" fill="#5A4146"></path>
                <path d="M478.057,330.961 L464.083,379.871 L398.018,322.065 C388.896,322.065 381.502,314.67 381.502,305.549 L381.502,305.549 C381.502,291.867 392.594,280.775 406.276,280.775 L464.082,280.775 C473.204,280.775 480.598001,288.17 480.598001,297.291 L480.598001,312.813 C480.599,318.95 479.743,325.059 478.057,330.961 Z" id="Path" fill="#694B4B"></path>
                <path d="M398.018,419.815 C405.677,422.927 414.029,424.679 422.792,424.679 C431.555,424.679 439.907,422.927 447.566,419.815 L447.566,404.646 L398.018,404.646 L398.018,419.815 L398.018,419.815 Z" id="Path" fill="#D29B6E"></path>
                <path d="M422.792,412.903 L422.792,412.903 C395.427,412.903 373.244,390.719 373.244,363.355 L373.244,353.68 C373.244,349.3 374.984,345.099 378.081,342.001 L393.056,327.026 C396.227,323.855 400.563,322.032 405.045,322.173 C431.443,323.006 454.809,328.661 467.582,341.136 C470.709,344.19 472.341,348.462 472.341,352.832 L472.341,363.355 C472.341,390.72 450.157,412.903 422.792,412.903 Z" id="Path" fill="#F0C087"></path>
                <path d="M398.018,355.729 C398.018,346.203 406.018,338.631 415.525,339.237 C432.196,340.301 456.934,343.087 472.111,350.387 C471.616,346.903 470.119,343.614 467.582,341.136 C454.809,328.661 431.443,323.006 405.045,322.173 L405.044,322.173 L405.043,322.173 C400.562,322.032 396.225,323.856 393.055,327.026 L378.081,342 C374.983,345.097 373.243,349.298 373.243,353.679 L373.243,363.354 C373.243,385.95 388.384,404.975 409.063,410.933 C402.18,402.441 398.018,391.661 398.018,379.87 L398.018,355.729 L398.018,355.729 Z" id="Path" fill="#E6AF78"></path>
                <g id="Group" transform="translate(340.000000, 445.000000)" fill="#FFE200">
                    <path d="M33.244,39.489 C33.244,32.918 30.634,26.617 25.988,21.971 L4.731,0.714 C1.89,4.775 0.212,9.664 0.212,14.883 L0.212,58.743 C0.212,63.304 3.909,67.001 8.47,67.001 L33.244,67.001 L33.244,39.489 L33.244,39.489 Z" id="Path"></path>
                    <path d="M132.341,39.489 C132.341,32.918 134.951,26.617 139.597,21.971 L160.854,0.714 C163.695,4.775 165.373,9.664 165.373,14.883 L165.373,58.743 C165.373,63.304 161.676,67.001 157.115,67.001 L132.341,67.001 L132.341,39.489 Z" id="Path"></path>
                </g>
                <ellipse id="Oval" fill="#785550" cx="74.952" cy="284.9" rx="33.03" ry="28.903"></ellipse>
                <path d="M66.694,284.903 C66.694,272.779 75.243,262.435 87.339,258.143 C83.508,256.784 79.339,256 74.952,256 C56.709,256 41.92,268.941 41.92,284.903 C41.92,300.865 56.709,313.806 74.952,313.806 C79.34,313.806 83.508,313.022 87.339,311.663 C75.243,307.371 66.694,297.027 66.694,284.903 Z" id="Path" fill="#694B4B"></path>
                <path d="M135.579,449.297 L108.855,435.936 C103.259,433.138 99.724,427.418 99.725,421.162 L99.727,396.387 L50.177,396.387 L50.177,421.163 C50.177,427.419 46.643,433.137 41.047,435.935 L14.323,449.297 C5.93,453.494 0.628,462.072 0.628,471.455 L0.628,503.741 C0.628,508.301 4.325,511.999 8.886,511.999 L141.015,511.999 C145.576,511.999 149.273,508.301 149.273,503.741 L149.273,471.456 C149.273,462.073 143.972,453.494 135.579,449.297 Z" id="Path" fill="#E6AF78"></path>
                <path d="M74.952,429.419 C83.844,429.419 92.361,427.586 100.169,424.323 C99.964,423.282 99.725,422.247 99.725,421.162 L99.727,396.387 L50.177,396.387 L50.177,421.163 C50.177,422.254 49.938,423.294 49.731,424.339 C57.544,427.585 66.057,429.419 74.952,429.419 Z" id="Path" fill="#D29B6E"></path>
                <path d="M135.579,449.297 L116.541,439.778 C107.713,453.41 92.402,462.451 74.952,462.451 C57.502,462.451 42.19,453.41 33.362,439.777 L14.324,449.297 C5.931,453.494 0.629,462.072 0.629,471.456 L0.629,503.742 C0.629,508.303 4.326,512 8.887,512 L141.016,512 C145.577,512 149.274,508.303 149.274,503.742 L149.274,471.457 C149.274,462.073 143.972,453.494 135.579,449.297 Z" id="Path" fill="#D5DCED"></path>
                <circle id="Oval" fill="#5A4146" cx="74.952" cy="338.58" r="57.806"></circle>
                <path d="M132.216,330.567 C129.039,307.01 110.991,287.316 87.78,282.191 C83.546,281.256 79.378,280.801 75.312,280.775415 C47.617,280.603 38.369,318.843 63.266,330.974 C64.605,331.626 65.453,331.919 65.453,331.919 L94.22,384 C94.22,384 101.885,384.524 109.616,384.762 C125.598,372.745 135.201,352.702 132.216,330.567 Z" id="Path" fill="#694B4B"></path>
                <path d="M74.952,412.903 L74.952,412.903 C49.76,412.903 28.96,394.103 25.815,369.768 C25.359,366.243 27.054,362.785 30.228,361.184 C34.03,359.266 39.555,356.032 44.845,351.312 C50.736,346.056 54.192,340.513 56.144,336.444 C57.825,332.94 61.689,330.958 65.455,331.919 C94.531,339.335 114.326,354.462 121.508,360.638 C123.436,362.296 124.547,364.741 124.349,367.277 C122.348,392.808 100.997,412.903 74.952,412.903 Z" id="Path" fill="#F0C087"></path>
                <path d="M121.507,360.638 C114.326,354.462 94.53,339.335 65.454,331.919 C61.688,330.958 57.824,332.94 56.143,336.444 C54.665,339.526 52.222,343.452 48.597,347.46 C48.596,347.47 48.593,347.478 48.592,347.488 C47.467,348.763 46.269,350.041 44.845,351.313 C39.555,356.034 34.03,359.267 30.228,361.185 C27.054,362.786 25.36,366.244 25.815,369.77 C28.64,391.625 45.742,408.89 67.44,412.208 C57.553,405.482 50.178,396.363 50.178,379.873 L50.178,368.097 C52.054,366.712 53.943,365.331 55.841,363.637 C60.431,359.541 64.438,354.804 67.651,349.704 C89.894,356.645 104.974,368.206 110.691,373.122 C112.256,374.494 116.14,378.074 120.684,382.337 C122.639,377.632 123.932,372.584 124.347,367.279 C124.546,364.741 123.435,362.296 121.507,360.638 Z" id="Path" fill="#E6AF78"></path>
                <g id="Group" transform="translate(0.000000, 456.000000)" fill="#C7CFE2">
                    <path d="M5.663,0.57 C2.482,4.791 0.629,9.971 0.629,15.457 L0.629,47.743 C0.629,52.304 4.326,56.001 8.887,56.001 L33.661,56.001 L33.661,30.907 C33.661,25.89 31.38,21.144 27.462,18.01 L5.663,0.57 Z" id="Path"></path>
                    <path d="M144.24,0.57 C147.421,4.791 149.274,9.971 149.274,15.457 L149.274,47.743 C149.274,52.304 145.577,56.001 141.016,56.001 L116.242,56.001 L116.242,30.907 C116.242,25.89 118.523,21.144 122.441,18.01 L144.24,0.57 Z" id="Path"></path>
                </g>
                <path d="M319.811,125.382 C312.754,106.684 307.157,74.541 305.948,57.806 C303.648,25.961 279.649,0 247.208,0 C214.767,0 190.767,25.961 188.467,57.806 C187.258,74.54 181.661,106.684 174.604,125.382 C173.049,129.504 174.844,134.049 178.903,135.889 C186.465,139.316 202.588,146.03 222.033,148.645 L272.382,148.645 C291.736,146.024 307.972,139.306 315.512,135.889 C319.57,134.049 321.366,129.504 319.811,125.382 Z" id="Path" fill="#5A4146"></path>
                <path d="M315.512,135.889 C319.57,134.049 321.366,129.504 319.81,125.382 C312.754,106.684 307.156,74.541 305.948,57.806 C303.649,25.961 279.649,0 247.208,0 C247.126,0 247.045,0 246.963,0 C222.07,0.101 213.273,34.05 234.702,46.717 C235.989,47.478 236.814,47.844 236.814,47.844 L255.583,148.644 L272.382,148.644 C291.736,146.024 307.972,139.306 315.512,135.889 Z" id="Path" fill="#694B4B"></path>
                <path d="M306.939,165.224 L280.215,151.863 C274.619,149.065 271.084,143.345 271.085,137.089 L271.086,112.314 L221.538,112.314 L221.538,137.09 C221.538,143.346 218.004,149.064 212.408,151.862 L185.684,165.224 C177.291,169.421 171.989,177.999 171.989,187.382 L171.989,219.668 C171.989,224.228 175.686,227.926 180.247,227.926 L312.376,227.926 C316.937,227.926 320.634,224.228 320.634,219.668 L320.634,187.383 C320.634,177.999 315.332,169.421 306.939,165.224 Z" id="Path" fill="#E6AF78"></path>
                <path d="M246.312,145.346 C255.204,145.346 263.721,143.513 271.529,140.25 C271.324,139.209 271.085,138.174 271.085,137.089 L271.086,112.314 L221.538,112.314 L221.538,137.09 C221.538,138.181 221.299,139.221 221.092,140.266 C228.904,143.512 237.417,145.346 246.312,145.346 Z" id="Path" fill="#D29B6E"></path>
                <path d="M306.939,165.224 L287.901,155.705 C279.073,169.337 263.762,178.378 246.312,178.378 C228.862,178.378 213.55,169.337 204.722,155.704 L185.684,165.224 C177.291,169.421 171.989,177.999 171.989,187.383 L171.989,219.669 C171.989,224.23 175.686,227.927 180.247,227.927 L312.376,227.927 C316.937,227.927 320.634,224.23 320.634,219.669 L320.634,187.384 C320.634,177.999 315.332,169.421 306.939,165.224 Z" id="Path" fill="#A31621"></path>
                <path d="M246.312,128.83 L246.312,128.83 C221.12,128.83 200.32,110.03 197.175,85.695 C196.719,82.17 198.414,78.712 201.588,77.111 C205.39,75.193 210.915,71.959 216.205,67.239 C222.096,61.983 225.552,56.44 227.504,52.371 C229.185,48.867 233.049,46.885 236.815,47.846 C265.891,55.262 285.686,70.389 292.868,76.565 C294.796,78.223 295.907,80.668 295.709,83.204 C293.708,108.735 272.356,128.83 246.312,128.83 Z" id="Path" fill="#F0C087"></path>
                <path d="M292.866,76.564 C285.685,70.388 265.889,55.261 236.813,47.845 C233.047,46.884 229.183,48.866 227.502,52.37 C226.024,55.452 223.581,59.378 219.956,63.386 C219.955,63.396 219.952,63.404 219.951,63.414 C218.826,64.689 217.628,65.967 216.204,67.239 C210.914,71.96 205.389,75.193 201.587,77.111 C198.413,78.712 196.719,82.17 197.174,85.696 C199.999,107.551 217.101,124.816 238.799,128.134 C228.912,121.408 221.537,112.289 221.537,95.799 L221.537,84.022 C223.413,82.637 225.302,81.256 227.2,79.562 C231.79,75.466 235.797,70.729 239.01,65.629 C261.253,72.57 276.333,84.131 282.05,89.047 C283.615,90.419 287.499,93.999 292.043,98.262 C293.998,93.557 295.291,88.509 295.706,83.204 C295.906,80.668 294.795,78.222 292.866,76.564 Z" id="Path" fill="#E6AF78"></path>
                <g id="Group" transform="translate(171.000000, 172.000000)" fill="#8B131C">
                    <path d="M6.023,0.496 C2.842,4.717 0.989,9.897 0.989,15.383 L0.989,47.669 C0.989,52.23 4.686,55.927 9.247,55.927 L34.021,55.927 L34.021,30.833 C34.021,25.816 31.74,21.07 27.822,17.936 L6.023,0.496 Z" id="Path"></path>
                    <path d="M144.6,0.496 C147.781,4.717 149.634,9.897 149.634,15.383 L149.634,47.669 C149.634,52.23 145.937,55.927 141.376,55.927 L116.602,55.927 L116.602,30.833 C116.602,25.816 118.883,21.07 122.801,17.936 L144.6,0.496 Z" id="Path"></path>
                </g>
                <path d="M343.645,405.935 L256.629,350.561 L256.629,264.258 C256.629,259.698 252.935,256 248.371,256 C243.807,256 240.113,259.698 240.113,264.258 L240.113,350.561 L153.097,405.935 C149.25,408.383 148.113,413.487 150.565,417.338 C153.009,421.181 158.105,422.318 161.968,419.87 L248.371,364.886 L334.774,419.87 C336.153,420.745 337.685,421.161088 339.201,421.161088 C341.927,421.161088 344.604,419.809 346.177,417.337 C348.629,413.488 347.492,408.383 343.645,405.935 Z" id="Path" fill="#DFE3E6"></path>
            </g>
        </g>
    </g>
</svg>