<svg id="Capa_1" enable-background="new 0 0 512 512" height="512" viewBox="0 0 512 512" width="512" xmlns="http://www.w3.org/2000/svg"><g><path d="m241 243.587h30v67.5h-30z" fill="#fff797"/><path d="m256 243.587h15v67.5h-15z" fill="#fee07d"/><g><path d="m175 331.087h46v30h-46z" fill="#fff797"/></g><g><path d="m291 331.087h46v30h-46z" fill="#fee07d"/></g><path d="m306 218.587h-20v-36h-60v36h-20c-8.284 0-15 6.716-15 15s6.716 15 15 15h100c8.284 0 15-6.716 15-15s-6.716-15-15-15z" fill="#eef9ff"/><path d="m306 218.587h-20v-36h-30v66h50c8.28 0 15-6.72 15-15s-6.72-15-15-15z" fill="#c4eaf5"/><path d="m331 37.587h-150c-8.284 0-15 6.716-15 15v120c0 8.284 6.716 15 15 15h150c8.284 0 15-6.716 15-15v-120c0-8.284-6.716-15-15-15z" fill="#093968"/><path d="m346 52.587v120c0 8.28-6.72 15-15 15h-75v-150h75c8.28 0 15 6.72 15 15z" fill="#001e49"/><path d="m196 67.587h120v90h-120z" fill="#5ca7e5"/><path d="m256 67.587h60v90h-60z" fill="#3187ce"/><g><path d="m140 444.413h-20v-36h-60v36h-20c-8.284 0-15 6.716-15 15s6.716 15 15 15h100c8.284 0 15-6.716 15-15s-6.716-15-15-15z" fill="#eef9ff"/><path d="m165 263.412h-150c-8.284 0-15 6.716-15 15v120c0 8.284 6.716 15 15 15h150c8.284 0 15-6.716 15-15v-120c0-8.284-6.716-15-15-15z" fill="#0d5493"/><path d="m30 293.412h120v90h-120z" fill="#5ca7e5"/></g><g><path d="m472 444.413h-20v-36h-60v36h-20c-8.284 0-15 6.716-15 15s6.716 15 15 15h100c8.284 0 15-6.716 15-15s-6.716-15-15-15z" fill="#c4eaf5"/><path d="m497 263.412h-150c-8.284 0-15 6.716-15 15v120c0 8.284 6.716 15 15 15h150c8.284 0 15-6.716 15-15v-120c0-8.284-6.716-15-15-15z" fill="#001e49"/><path d="m362 293.412h120v90h-120z" fill="#3187ce"/></g><circle cx="256" cy="346.087" fill="#fcca62" r="40"/><path d="m296 346.09c0 22.05-17.94 40-40 40v-80c22.06 0 40 17.94 40 40z" fill="#feb948"/></g></svg>