<svg id="Capa_1" enable-background="new 0 0 512 512" height="512" viewBox="0 0 512 512" width="512" xmlns="http://www.w3.org/2000/svg"><g><path d="m375.916 76.538-14.347-10h-210.928l-14.698 10c.002 96.102-.148 89.958.196 91.952 70.334-57.079 170.281-56.24 239.58 0 .345-1.995.195 4.129.197-91.952z" fill="#093968"/><path d="m375.72 168.49c-34.76-28.2-77.22-42.48-119.79-42.5v-59.45h105.64l14.35 10c-.01 96.08.14 89.96-.2 91.95z" fill="#001e49"/><path d="m375.93 25h-240c.01 19.823.014 36.871.014 51.538h239.972c0-14.667.004-31.715.014-51.538z" fill="#0d5493"/><path d="m375.93 25c-.01 19.82-.01 36.87-.01 51.54h-119.99v-51.54z" fill="#093968"/><path d="m105.93 25v106.05c0 8.28-6.72 15-15 15s-15-6.72-15-15v-106.05z" fill="#fee07d"/><path d="m451.429 0h-390.859c-8.284 0-15 6.716-15 15s6.716 15 15 15h390.858c8.284 0 15-6.716 15-15s-6.715-15-14.999-15z" fill="#093968"/><path d="m466.43 15c0 8.28-6.72 15-15 15h-195.5v-30h195.5c8.28 0 15 6.72 15 15z" fill="#001e49"/><circle cx="255.929" cy="316.5" fill="#5ca7e5" r="195.5"/><path d="m451.43 316.5c0 108.04-87.99 195.5-195.5 195.5v-391c107.35 0 195.5 87.28 195.5 195.5z" fill="#3187ce"/><path d="m205.676 437.437c-6.832-13.694-12.347-29.382-16.43-46.437h133.365c-21.126 88.253-76.27 127.947-116.935 46.437z" fill="#c4eaf5"/><path d="m322.61 391c-13.05 54.53-39.09 90.52-66.68 90.83v-90.83z" fill="#98cee6"/><path d="m183.741 361c-3.864-29.344-3.814-60.77.13-90h144.116c3.942 29.214 3.996 60.64.13 90z" fill="#c4eaf5"/><path d="m328.12 361h-72.19v-90h72.06c3.94 29.21 3.99 60.64.13 90z" fill="#98cee6"/><path d="m96.791 271h56.851c-3.642 29.461-3.686 60.461-.119 90h-57.01c-8.204-29.353-8.115-60.688.278-90z" fill="#c4eaf5"/><path d="m306.181 195.563c6.698 13.426 12.13 28.769 16.188 45.437h-132.881c21.45-88.106 76.356-126.29 116.693-45.437z" fill="#c4eaf5"/><g fill="#98cee6"><path d="m322.37 241h-66.44v-89.83c17.08-.18 34.74 13.31 50.25 44.39 6.7 13.43 12.13 28.77 16.19 45.44z"/><path d="m358.216 271h56.851c8.389 29.3 8.485 60.635.278 90h-57.01c3.558-29.472 3.531-60.472-.119-90z"/><path d="m403.18 241h-50.053c-5.68-26.031-15.142-53.15-29.578-75.545 34.32 15.425 62.47 42.212 79.631 75.545z"/></g><path d="m188.309 165.456c-14.436 22.393-23.898 49.512-29.578 75.544h-50.053c17.16-33.333 45.311-60.119 79.631-75.544z" fill="#c4eaf5"/><path d="m108.174 391h50.342c5.676 26.431 15.206 53.915 29.793 76.544-34.662-15.578-63.026-42.748-80.135-76.544z" fill="#c4eaf5"/><path d="m323.548 467.545c14.589-22.631 24.118-50.116 29.794-76.545h50.342c-17.11 33.796-45.474 60.966-80.136 76.545z" fill="#98cee6"/></g></svg>