<?xml version="1.0" encoding="UTF-8"?>
<svg width="612px" height="110px" viewBox="0 0 612 110" version="1.1" xmlns="http://www.w3.org/2000/svg" xmlns:xlink="http://www.w3.org/1999/xlink">
    <title>logo</title>
    <g id="logo" stroke="none" stroke-width="1" fill="none" fill-rule="evenodd">
        <g>
            <g id="brandmark" stroke="#1E1E24" stroke-width="2.00668896">
                <ellipse id="Oval" fill="#F6F7F8" cx="54.8271723" cy="54.8819994" rx="53.8238278" ry="53.878655"></ellipse>
                <g id="Group" transform="translate(54.845602, 55.449714) rotate(-315.000000) translate(-54.845602, -55.449714) translate(28.845602, 29.449714)">
                    <rect id="Rectangle" fill="#4C82A9" x="0" y="0" width="21.9308689" height="51.2231995" rx="1.59656726"></rect>
                    <rect id="Rectangle" fill="#DF8768" x="29.2411585" y="0" width="21.9308689" height="21.9527998" rx="1.59656726"></rect>
                    <rect id="Rectangle" fill="#FFF07C" x="29.2411585" y="29.2703997" width="21.9308689" height="21.9527998" rx="1.59656726"></rect>
                    <line x1="21.7481117" y1="10.7934599" x2="29.0584013" y2="10.7934599" id="Line"></line>
                    <line x1="40.0238358" y1="21.7698598" x2="40.0238358" y2="29.0874597" id="Line"></line>
                    <line x1="21.7481117" y1="40.4297396" x2="29.0584013" y2="40.4297396" id="Line"></line>
                </g>
                <line x1="55.0110817" y1="20.3063398" x2="55.0110817" y2="0.182939998" id="Line-2"></line>
                <line x1="108.187678" y1="54.8819994" x2="90.0166667" y2="54.8166667" id="Line-2"></line>
                <line x1="20.1032965" y1="54.8819994" x2="0.55" y2="54.8166667" id="Line-2"></line>
                <line x1="55" y1="109.448161" x2="55.0099295" y2="89.8235391" id="Line-2"></line>
            </g>
            <path d="M141.552396,78.2183651 C146.223812,78.2183651 149.969489,77.1965286 152.789429,75.1528555 C155.609369,73.1091825 157.019339,70.4076148 157.019339,67.0481523 C157.019339,64.9204927 156.577833,63.1707727 155.694822,61.7989922 C154.81181,60.4272116 153.316388,59.2513998 151.208554,58.2715566 C149.10072,57.2917133 146.08139,56.3258679 142.150565,55.3740202 C139.359109,54.7581187 137.208549,54.1142217 135.698884,53.4423292 C134.189219,52.7704367 133.12106,51.9725644 132.494407,51.0487122 C131.867754,50.12486 131.554427,48.9350504 131.554427,47.4792833 C131.554427,45.0716685 132.537133,43.1259798 134.502546,41.6422172 C136.467959,40.1584546 139.045783,39.4165733 142.236018,39.4165733 C144.685663,39.4165733 146.722286,39.7805151 148.345888,40.5083987 C149.969489,41.2362822 151.521881,42.1601344 153.003061,43.2799552 C154.028494,44.1198208 154.769084,44.5397536 155.224832,44.5397536 C155.623611,44.5397536 155.965422,44.3857783 156.250265,44.0778275 C156.535107,43.7698768 156.677528,43.4199328 156.677528,43.0279955 C156.677528,42.4120941 156.435412,41.8101904 155.95118,41.2222844 C155.466948,40.6343785 154.683631,39.9484882 153.60123,39.1646137 C152.12005,38.1567749 150.410995,37.3729003 148.474067,36.8129899 C146.537138,36.2530795 144.514757,35.9731243 142.406923,35.9731243 C138.02035,35.9731243 134.445578,37.0649496 131.682606,39.2486002 C128.919635,41.4322508 127.538149,44.2597984 127.538149,47.731243 C127.538149,50.5867861 128.62055,52.8824188 130.785353,54.6181411 C132.950155,56.3538634 136.539169,57.7816349 141.552396,58.9014558 C144.571726,59.5733483 146.893191,60.2592385 148.516793,60.9591265 C150.140395,61.6590146 151.308249,62.4848824 152.020355,63.4367301 C152.732461,64.3885778 153.088514,65.5923852 153.088514,67.0481523 C153.088514,69.5117581 152.091565,71.4154535 150.097668,72.7592385 C148.103772,74.1030235 145.255347,74.774916 141.552396,74.774916 C138.817909,74.774916 136.553412,74.3969765 134.758904,73.6410974 C132.964397,72.8852184 131.2411,71.9193729 129.589014,70.743561 C129.418109,70.6315789 129.09054,70.4216125 128.606308,70.1136618 C128.122076,69.8057111 127.737539,69.6517357 127.452696,69.6517357 C127.053917,69.6517357 126.712106,69.8057111 126.427264,70.1136618 C126.142421,70.4216125 126,70.7715566 126,71.1634938 C126,71.7793953 126.19939,72.325308 126.598169,72.8012318 C126.996948,73.2771557 127.766023,73.8790594 128.905393,74.6069429 C130.671416,75.7267637 132.665313,76.6086226 134.887083,77.2525196 C137.108854,77.8964166 139.330625,78.2183651 141.552396,78.2183651 Z M185.930844,78.0503919 C187.58293,78.2183651 188.408973,77.6864502 188.408973,76.4546473 C188.408973,75.4468085 187.78232,74.8868981 186.529014,74.774916 L186.529014,74.774916 L184.22179,74.6069429 C181.031555,74.3269877 178.681605,73.37514 177.17194,71.7513998 C175.662275,70.1276596 174.907443,67.4120941 174.907443,63.6047032 L174.907443,63.6047032 L174.907443,40.0044793 L186.272655,40.0044793 C186.728403,40.0044793 187.084456,39.8645017 187.340814,39.5845465 C187.597173,39.3045913 187.725352,38.968645 187.725352,38.5767077 C187.725352,38.1287794 187.58293,37.7508399 187.298088,37.4428891 C187.013246,37.1349384 186.671435,36.980963 186.272655,36.980963 L186.272655,36.980963 L174.907443,36.980963 L174.907443,25.8107503 C174.907443,25.1948488 174.736537,24.718925 174.394727,24.3829787 C174.052916,24.0470325 173.625652,23.8790594 173.112936,23.8790594 C172.600219,23.8790594 172.172956,24.0470325 171.831145,24.3829787 C171.489334,24.718925 171.318428,25.1948488 171.318428,25.8107503 L171.318428,25.8107503 L171.318428,36.980963 L164.225852,36.980963 C163.827073,36.980963 163.485262,37.1349384 163.20042,37.4428891 C162.915577,37.7508399 162.773156,38.1287794 162.773156,38.5767077 C162.773156,38.968645 162.915577,39.3045913 163.20042,39.5845465 C163.485262,39.8645017 163.827073,40.0044793 164.225852,40.0044793 L164.225852,40.0044793 L171.318428,40.0044793 L171.318428,63.5207167 C171.318428,68.2799552 172.315377,71.7933931 174.309274,74.0610302 C176.303171,76.3286674 179.436437,77.6024636 183.709074,77.8824188 L183.709074,77.8824188 L185.930844,78.0503919 Z M210.14245,78.2183651 C213.161779,78.2183651 215.85354,77.518477 218.217732,76.118701 C220.581924,74.718925 222.390674,72.731243 223.64398,70.1556551 L223.64398,70.1556551 L223.64398,76.0347144 C223.64398,76.5946249 223.814886,77.056551 224.156697,77.4204927 C224.498508,77.7844345 224.954256,77.9664054 225.52394,77.9664054 C226.093625,77.9664054 226.535131,77.7984323 226.848458,77.462486 C227.161784,77.1265398 227.318448,76.6506159 227.318448,76.0347144 L227.318448,76.0347144 L227.318448,51.0067189 C227.318448,40.9843225 222.561579,35.9731243 213.047843,35.9731243 C210.712135,35.9731243 208.362185,36.281075 205.997993,36.8969765 C203.633801,37.5128779 201.454756,38.4087346 199.460859,39.5845465 C197.466962,40.7603583 196.470014,41.8801792 196.470014,42.944009 C196.470014,43.3919373 196.626677,43.7698768 196.940004,44.0778275 C197.253331,44.3857783 197.609384,44.5397536 198.008163,44.5397536 C198.463911,44.5397536 199.047838,44.3017917 199.759944,43.8258679 C200.47205,43.349944 200.94204,43.0279955 201.169914,42.8600224 C202.42322,41.9641657 204.118033,41.1662934 206.254351,40.4664054 C208.390669,39.7665174 210.826072,39.4165733 213.560559,39.4165733 C217.035636,39.4165733 219.584976,40.3264278 221.208578,42.1461366 C222.83218,43.9658455 223.64398,46.8633819 223.64398,50.8387458 L223.64398,50.8387458 L223.64398,54.3661814 L221.934926,54.3661814 C215.212645,54.3661814 209.985787,54.7301232 206.254351,55.4580067 C202.522915,56.1858903 199.845397,57.3756999 198.221795,59.0274356 C196.598193,60.6791713 195.786392,63.0167973 195.786392,66.0403135 C195.786392,68.2799552 196.427288,70.337626 197.709078,72.2133259 C198.990869,74.0890258 200.728408,75.5587906 202.921695,76.6226204 C205.114981,77.6864502 207.5219,78.2183651 210.14245,78.2183651 Z M210.14245,74.6909295 C207.180089,74.6909295 204.730444,73.8650616 202.793516,72.2133259 C200.856587,70.5615901 199.888123,68.4479283 199.888123,65.8723404 C199.888123,63.6326988 200.514776,61.9389698 201.768083,60.7911534 C203.021389,59.6433371 205.214676,58.831467 208.347943,58.3555431 C211.481209,57.8796193 216.038688,57.6416573 222.020379,57.6416573 L222.020379,57.6416573 L223.64398,57.6416573 L223.64398,60.6651736 C223.64398,63.3527436 223.060053,65.7603583 221.8922,67.8880179 C220.724346,70.0156775 219.114986,71.681411 217.064121,72.8852184 C215.013255,74.0890258 212.706032,74.6909295 210.14245,74.6909295 Z M244.181119,78.0503919 C244.750803,78.0503919 245.192309,77.8824188 245.505636,77.5464726 C245.818963,77.2105263 245.975626,76.7346025 245.975626,76.118701 L245.975626,76.118701 L245.975626,53.1903695 C245.975626,49.774916 247.029543,46.7513998 249.137377,44.1198208 C251.245211,41.4882419 254.378477,39.9764838 258.537176,39.5845465 L258.537176,39.5845465 L261.100758,39.3325868 C262.297096,39.1646137 262.895265,38.6047032 262.895265,37.6528555 C262.895265,37.1489362 262.767086,36.7709966 262.510728,36.519037 C262.25437,36.2670773 261.78438,36.1410974 261.100758,36.1410974 L261.100758,36.1410974 L260.502589,36.1410974 L259.306251,36.225084 C252.868812,36.6730123 248.425271,39.3045913 245.975626,44.1198208 L245.975626,44.1198208 L245.975626,38.0727884 C245.975626,37.4568869 245.80472,36.980963 245.46291,36.6450168 C245.121099,36.3090705 244.693835,36.1410974 244.181119,36.1410974 C242.98478,36.1410974 242.386611,36.7849944 242.386611,38.0727884 L242.386611,38.0727884 L242.386611,76.118701 C242.386611,76.7346025 242.543275,77.2105263 242.856601,77.5464726 C243.169928,77.8824188 243.611434,78.0503919 244.181119,78.0503919 Z M290.097716,78.0503919 C291.749802,78.2183651 292.575845,77.6864502 292.575845,76.4546473 C292.575845,75.4468085 291.949192,74.8868981 290.695885,74.774916 L290.695885,74.774916 L288.388662,74.6069429 C285.198427,74.3269877 282.848477,73.37514 281.338812,71.7513998 C279.829147,70.1276596 279.074315,67.4120941 279.074315,63.6047032 L279.074315,63.6047032 L279.074315,40.0044793 L290.439527,40.0044793 C290.895275,40.0044793 291.251328,39.8645017 291.507686,39.5845465 C291.764044,39.3045913 291.892223,38.968645 291.892223,38.5767077 C291.892223,38.1287794 291.749802,37.7508399 291.46496,37.4428891 C291.180117,37.1349384 290.838306,36.980963 290.439527,36.980963 L290.439527,36.980963 L279.074315,36.980963 L279.074315,25.8107503 C279.074315,25.1948488 278.903409,24.718925 278.561598,24.3829787 C278.219787,24.0470325 277.792524,23.8790594 277.279807,23.8790594 C276.767091,23.8790594 276.339827,24.0470325 275.998017,24.3829787 C275.656206,24.718925 275.4853,25.1948488 275.4853,25.8107503 L275.4853,25.8107503 L275.4853,36.980963 L268.392724,36.980963 C267.993945,36.980963 267.652134,37.1349384 267.367291,37.4428891 C267.082449,37.7508399 266.940028,38.1287794 266.940028,38.5767077 C266.940028,38.968645 267.082449,39.3045913 267.367291,39.5845465 C267.652134,39.8645017 267.993945,40.0044793 268.392724,40.0044793 L268.392724,40.0044793 L275.4853,40.0044793 L275.4853,63.5207167 C275.4853,68.2799552 276.482249,71.7933931 278.476146,74.0610302 C280.470043,76.3286674 283.603309,77.6024636 287.875945,77.8824188 L287.875945,77.8824188 L290.097716,78.0503919 Z M330.915634,93 C331.599256,93 332.111973,92.6640538 332.453784,91.9921613 L332.453784,91.9921613 L356.978716,38.5767077 C357.092653,38.2407615 357.149621,37.9888018 357.149621,37.8208287 C357.149621,37.3169093 356.978716,36.9109742 356.636905,36.6030235 C356.295094,36.2950728 355.896314,36.1410974 355.440567,36.1410974 C354.699976,36.1410974 354.158776,36.5330347 353.816965,37.3169093 L353.816965,37.3169093 L337.580947,73.1791713 L337.410042,73.5991041 L320.917666,37.0649496 C320.575855,36.3930571 320.091623,36.0571109 319.464969,36.0571109 C318.952253,36.0571109 318.496505,36.225084 318.097726,36.5610302 C317.698946,36.8969765 317.499557,37.3169093 317.499557,37.8208287 C317.499557,37.9888018 317.556525,38.2407615 317.670462,38.5767077 L317.670462,38.5767077 L335.615534,77.5464726 L329.462938,90.8163494 L329.292033,91.4882419 C329.292033,91.9361702 329.448696,92.300112 329.762023,92.5800672 C330.075349,92.8600224 330.459887,93 330.915634,93 Z M382.130301,78.2183651 C385.776284,78.2183651 388.995003,77.3505039 391.786459,75.6147816 C394.577915,73.8790594 396.742717,71.4154535 398.280866,68.2239642 C399.819015,65.0324748 400.58809,61.3090705 400.58809,57.0537514 C400.58809,52.8544233 399.819015,49.1590146 398.280866,45.9675252 C396.742717,42.7760358 394.577915,40.31243 391.786459,38.5767077 C388.995003,36.8409854 385.776284,35.9731243 382.130301,35.9731243 C378.484318,35.9731243 375.265599,36.8409854 372.474143,38.5767077 C369.682687,40.31243 367.517885,42.7760358 365.979736,45.9675252 C364.441587,49.1590146 363.672512,52.8544233 363.672512,57.0537514 C363.672512,61.3090705 364.441587,65.0324748 365.979736,68.2239642 C367.517885,71.4154535 369.682687,73.8790594 372.474143,75.6147816 C375.265599,77.3505039 378.484318,78.2183651 382.130301,78.2183651 Z M382.044848,74.774916 C377.430401,74.774916 373.855629,73.2491601 371.320531,70.1976484 C368.785434,67.1461366 367.517885,62.7648376 367.517885,57.0537514 C367.517885,51.5106383 368.813918,47.1853303 371.405984,44.0778275 C373.99805,40.9703247 377.572822,39.4165733 382.130301,39.4165733 C386.68778,39.4165733 390.262552,40.9703247 392.854618,44.0778275 C395.446684,47.1853303 396.742717,51.5106383 396.742717,57.0537514 C396.742717,62.7648376 395.475168,67.1461366 392.940071,70.1976484 C390.404973,73.2491601 386.773232,74.774916 382.044848,74.774916 Z M427.448729,78.2183651 C430.581996,78.2183651 433.387694,77.5044793 435.865823,76.0767077 C438.343952,74.6489362 440.238154,72.6192609 441.548429,69.987682 L441.548429,69.987682 L441.548429,76.118701 C441.548429,76.6786114 441.705092,77.1405375 442.018419,77.5044793 C442.331746,77.8684211 442.744767,78.0503919 443.257484,78.0503919 C444.453822,78.0503919 445.051991,77.406495 445.051991,76.118701 L445.051991,76.118701 L445.051991,37.9888018 C445.051991,37.4288914 444.895327,36.980963 444.582001,36.6450168 C444.268674,36.3090705 443.827168,36.1410974 443.257484,36.1410974 C442.687799,36.1410974 442.246293,36.3090705 441.932966,36.6450168 C441.61964,36.980963 441.462976,37.4288914 441.462976,37.9888018 L441.462976,37.9888018 L441.462976,60.1612542 C441.462976,64.5845465 440.166943,68.1259798 437.574877,70.7855543 C434.982811,73.4451288 431.55046,74.774916 427.277824,74.774916 C423.574873,74.774916 420.840385,73.7670773 419.074362,71.7513998 C417.308339,69.7357223 416.425328,66.600224 416.425328,62.3449048 L416.425328,62.3449048 L416.425328,37.9888018 C416.425328,37.4288914 416.268665,36.980963 415.955338,36.6450168 C415.642011,36.3090705 415.200506,36.1410974 414.630821,36.1410974 C414.061136,36.1410974 413.61963,36.3090705 413.306303,36.6450168 C412.992977,36.980963 412.836314,37.4288914 412.836314,37.9888018 L412.836314,37.9888018 L412.836314,62.6808511 C412.836314,67.7760358 414.075378,71.6394177 416.553507,74.2709966 C419.031636,76.9025756 422.663377,78.2183651 427.448729,78.2183651 Z M462.085567,78.0503919 C462.655252,78.0503919 463.096758,77.8824188 463.410085,77.5464726 C463.723411,77.2105263 463.880075,76.7346025 463.880075,76.118701 L463.880075,76.118701 L463.880075,53.1903695 C463.880075,49.774916 464.933991,46.7513998 467.041825,44.1198208 C469.149659,41.4882419 472.282926,39.9764838 476.441625,39.5845465 L476.441625,39.5845465 L479.005207,39.3325868 C480.201545,39.1646137 480.799714,38.6047032 480.799714,37.6528555 C480.799714,37.1489362 480.671535,36.7709966 480.415177,36.519037 C480.158819,36.2670773 479.688829,36.1410974 479.005207,36.1410974 L479.005207,36.1410974 L478.407038,36.1410974 L477.2107,36.225084 C470.773261,36.6730123 466.329719,39.3045913 463.880075,44.1198208 L463.880075,44.1198208 L463.880075,38.0727884 C463.880075,37.4568869 463.709169,36.980963 463.367358,36.6450168 C463.025547,36.3090705 462.598284,36.1410974 462.085567,36.1410974 C460.889229,36.1410974 460.29106,36.7849944 460.29106,38.0727884 L460.29106,38.0727884 L460.29106,76.118701 C460.29106,76.7346025 460.447723,77.2105263 460.76105,77.5464726 C461.074377,77.8824188 461.515882,78.0503919 462.085567,78.0503919 Z M512.388738,78.0503919 C512.901454,78.0503919 513.328718,77.8684211 513.670529,77.5044793 C514.01234,77.1405375 514.183245,76.6786114 514.183245,76.118701 L514.183245,76.118701 L514.183245,19.9316909 C514.183245,19.3717805 514.01234,18.9098544 513.670529,18.5459127 C513.328718,18.1819709 512.901454,18 512.388738,18 C511.819053,18 511.377548,18.1679731 511.064221,18.5039194 C510.750894,18.8398656 510.594231,19.3157895 510.594231,19.9316909 L510.594231,19.9316909 L510.594231,76.118701 C510.594231,76.7346025 510.750894,77.2105263 511.064221,77.5464726 C511.377548,77.8824188 511.819053,78.0503919 512.388738,78.0503919 Z M542.411129,78.2183651 C545.430458,78.2183651 548.122219,77.518477 550.486411,76.118701 C552.850603,74.718925 554.659353,72.731243 555.912659,70.1556551 L555.912659,70.1556551 L555.912659,76.0347144 C555.912659,76.5946249 556.083565,77.056551 556.425376,77.4204927 C556.767187,77.7844345 557.222934,77.9664054 557.792619,77.9664054 C558.362304,77.9664054 558.80381,77.7984323 559.117137,77.462486 C559.430463,77.1265398 559.587127,76.6506159 559.587127,76.0347144 L559.587127,76.0347144 L559.587127,51.0067189 C559.587127,40.9843225 554.830258,35.9731243 545.316521,35.9731243 C542.980814,35.9731243 540.630864,36.281075 538.266672,36.8969765 C535.90248,37.5128779 533.723435,38.4087346 531.729538,39.5845465 C529.735641,40.7603583 528.738693,41.8801792 528.738693,42.944009 C528.738693,43.3919373 528.895356,43.7698768 529.208683,44.0778275 C529.522009,44.3857783 529.878062,44.5397536 530.276842,44.5397536 C530.73259,44.5397536 531.316517,44.3017917 532.028623,43.8258679 C532.740729,43.349944 533.210719,43.0279955 533.438593,42.8600224 C534.691899,41.9641657 536.386712,41.1662934 538.52303,40.4664054 C540.659348,39.7665174 543.094751,39.4165733 545.829238,39.4165733 C549.304315,39.4165733 551.853655,40.3264278 553.477257,42.1461366 C555.100858,43.9658455 555.912659,46.8633819 555.912659,50.8387458 L555.912659,50.8387458 L555.912659,54.3661814 L554.203605,54.3661814 C547.481324,54.3661814 542.254465,54.7301232 538.52303,55.4580067 C534.791594,56.1858903 532.114075,57.3756999 530.490474,59.0274356 C528.866872,60.6791713 528.055071,63.0167973 528.055071,66.0403135 C528.055071,68.2799552 528.695966,70.337626 529.977757,72.2133259 C531.259548,74.0890258 532.997087,75.5587906 535.190374,76.6226204 C537.38366,77.6864502 539.790579,78.2183651 542.411129,78.2183651 Z M542.411129,74.6909295 C539.448768,74.6909295 536.999123,73.8650616 535.062194,72.2133259 C533.125266,70.5615901 532.156802,68.4479283 532.156802,65.8723404 C532.156802,63.6326988 532.783455,61.9389698 534.036762,60.7911534 C535.290068,59.6433371 537.483355,58.831467 540.616622,58.3555431 C543.749888,57.8796193 548.307367,57.6416573 554.289058,57.6416573 L554.289058,57.6416573 L555.912659,57.6416573 L555.912659,60.6651736 C555.912659,63.3527436 555.328732,65.7603583 554.160878,67.8880179 C552.993025,70.0156775 551.383665,71.681411 549.3328,72.8852184 C547.281934,74.0890258 544.974711,74.6909295 542.411129,74.6909295 Z M592.771268,78.2183651 C596.417251,78.2183651 599.63597,77.3365062 602.427426,75.5727884 C605.218882,73.8090705 607.383684,71.3174692 608.921833,68.0979843 C610.459982,64.8784994 611.229057,61.1410974 611.229057,56.8857783 C611.229057,52.6864502 610.459982,49.019037 608.921833,45.8835386 C607.383684,42.7480403 605.218882,40.31243 602.427426,38.5767077 C599.63597,36.8409854 596.417251,35.9731243 592.771268,35.9731243 C589.296191,35.9731243 586.319587,36.7290034 583.841458,38.2407615 C581.363329,39.7525196 579.497611,41.9081747 578.244305,44.7077268 L578.244305,44.7077268 L578.244305,19.9316909 C578.244305,19.3157895 578.087641,18.8398656 577.774315,18.5039194 C577.460988,18.1679731 577.019482,18 576.449798,18 C575.253459,18 574.65529,18.643897 574.65529,19.9316909 L574.65529,19.9316909 L574.65529,76.0347144 C574.65529,76.6506159 574.811954,77.1265398 575.12528,77.462486 C575.438607,77.7984323 575.880113,77.9664054 576.449798,77.9664054 C577.646136,77.9664054 578.244305,77.3225084 578.244305,76.0347144 L578.244305,76.0347144 L578.244305,69.399776 C579.497611,72.2553191 581.363329,74.4389698 583.841458,75.9507279 C586.319587,77.462486 589.296191,78.2183651 592.771268,78.2183651 Z M592.771268,74.774916 C588.099852,74.774916 584.510838,73.2351624 582.004225,70.1556551 C579.497611,67.0761478 578.244305,62.7088466 578.244305,57.0537514 C578.244305,51.4546473 579.497611,47.1153415 582.004225,44.0358343 C584.510838,40.956327 588.071368,39.4165733 592.685815,39.4165733 C597.300262,39.4165733 600.889277,40.9423292 603.452859,43.993841 C606.01644,47.0453527 607.298231,51.3426652 607.298231,56.8857783 C607.298231,62.5408735 606.01644,66.9361702 603.452859,70.0716685 C600.889277,73.2071669 597.328747,74.774916 592.771268,74.774916 Z" id="startyourlab" fill="#1E1E24" fill-rule="nonzero"></path>
        </g>
    </g>
</svg>