<?xml version="1.0" encoding="UTF-8"?>
<svg width="961px" height="241px" viewBox="0 0 961 241" version="1.1" xmlns="http://www.w3.org/2000/svg" xmlns:xlink="http://www.w3.org/1999/xlink">
    <title>Logo</title>
    <g id="Logo" stroke="none" stroke-width="1" fill="none" fill-rule="evenodd">
        <g id="Group-3" transform="translate(20.000000, 20.000000)">
            <g id="Group-2" stroke="#1E1E24" stroke-width="2">
                <circle id="Oval" fill="#F6F7F8" cx="100" cy="100" r="100"></circle>
                <g id="Group" transform="translate(100.000000, 100.471405) rotate(-315.000000) translate(-100.000000, -100.471405) translate(53.000000, 53.471405)">
                    <rect id="Rectangle" fill="#4C82A9" x="0" y="0" width="40" height="93.3333333" rx="8"></rect>
                    <rect id="Rectangle" fill="#DF8768" x="53.3333333" y="0" width="40" height="40" rx="8"></rect>
                    <rect id="Rectangle" fill="#FFF07C" x="53.3333333" y="53.3333333" width="40" height="40" rx="8"></rect>
                    <line x1="39.6666667" y1="19.6666667" x2="53" y2="19.6666667" id="Line"></line>
                    <line x1="73" y1="39.6666667" x2="73" y2="53" id="Line"></line>
                    <line x1="39.6666667" y1="73.6666667" x2="53" y2="73.6666667" id="Line"></line>
                </g>
                <line x1="99.6666667" y1="37" x2="99.6666667" y2="0.333333333" id="Line-2"></line>
                <line x1="200" y1="100" x2="163.333333" y2="100" id="Line-2"></line>
                <line x1="36.6666667" y1="100" x2="0" y2="100" id="Line-2"></line>
                <line x1="100.333333" y1="200.333333" x2="100.333333" y2="163.666667" id="Line-2"></line>
            </g>
            <path d="M253.32,139.84 C259.88,139.84 265.14,138.38 269.1,135.46 C273.06,132.54 275.04,128.68 275.04,123.88 C275.04,120.84 274.42,118.34 273.18,116.38 C271.94,114.42 269.84,112.74 266.88,111.34 C263.92,109.94 259.68,108.56 254.16,107.2 C250.24,106.32 247.22,105.4 245.1,104.44 C242.98,103.48 241.48,102.34 240.6,101.02 C239.72,99.7 239.28,98 239.28,95.92 C239.28,92.48 240.66,89.7 243.42,87.58 C246.18,85.46 249.8,84.4 254.28,84.4 C257.72,84.4 260.58,84.92 262.86,85.96 C265.14,87 267.32,88.32 269.4,89.92 C270.84,91.12 271.88,91.72 272.52,91.72 C273.08,91.72 273.56,91.5 273.96,91.06 C274.36,90.62 274.56,90.12 274.56,89.56 C274.56,88.68 274.22,87.82 273.54,86.98 C272.86,86.14 271.76,85.16 270.24,84.04 C268.16,82.6 265.76,81.48 263.04,80.68 C260.32,79.88 257.48,79.48 254.52,79.48 C248.36,79.48 243.34,81.04 239.46,84.16 C235.58,87.28 233.64,91.32 233.64,96.28 C233.64,100.36 235.16,103.64 238.2,106.12 C241.24,108.6 246.28,110.64 253.32,112.24 C257.56,113.2 260.82,114.18 263.1,115.18 C265.38,116.18 267.02,117.36 268.02,118.72 C269.02,120.08 269.52,121.8 269.52,123.88 C269.52,127.4 268.12,130.12 265.32,132.04 C262.52,133.96 258.52,134.92 253.32,134.92 C249.48,134.92 246.3,134.38 243.78,133.3 C241.26,132.22 238.84,130.84 236.52,129.16 C236.28,129 235.82,128.7 235.14,128.26 C234.46,127.82 233.92,127.6 233.52,127.6 C232.96,127.6 232.48,127.82 232.08,128.26 C231.68,128.7 231.48,129.2 231.48,129.76 C231.48,130.64 231.76,131.42 232.32,132.1 C232.88,132.78 233.96,133.64 235.56,134.68 C238.04,136.28 240.84,137.54 243.96,138.46 C247.08,139.38 250.2,139.84 253.32,139.84 Z M315.64,139.6 C317.96,139.84 319.12,139.08 319.12,137.32 C319.12,135.88 318.24,135.08 316.48,134.92 L316.48,134.92 L313.24,134.68 C308.76,134.28 305.46,132.92 303.34,130.6 C301.22,128.28 300.16,124.4 300.16,118.96 L300.16,118.96 L300.16,85.24 L316.12,85.24 C316.76,85.24 317.26,85.04 317.62,84.64 C317.98,84.24 318.16,83.76 318.16,83.2 C318.16,82.56 317.96,82.02 317.56,81.58 C317.16,81.14 316.68,80.92 316.12,80.92 L316.12,80.92 L300.16,80.92 L300.16,64.96 C300.16,64.08 299.92,63.4 299.44,62.92 C298.96,62.44 298.36,62.2 297.64,62.2 C296.92,62.2 296.32,62.44 295.84,62.92 C295.36,63.4 295.12,64.08 295.12,64.96 L295.12,64.96 L295.12,80.92 L285.16,80.92 C284.6,80.92 284.12,81.14 283.72,81.58 C283.32,82.02 283.12,82.56 283.12,83.2 C283.12,83.76 283.32,84.24 283.72,84.64 C284.12,85.04 284.6,85.24 285.16,85.24 L285.16,85.24 L295.12,85.24 L295.12,118.84 C295.12,125.64 296.52,130.66 299.32,133.9 C302.12,137.14 306.52,138.96 312.52,139.36 L312.52,139.36 L315.64,139.6 Z M349.64,139.84 C353.88,139.84 357.66,138.84 360.98,136.84 C364.3,134.84 366.84,132 368.6,128.32 L368.6,128.32 L368.6,136.72 C368.6,137.52 368.84,138.18 369.32,138.7 C369.8,139.22 370.44,139.48 371.24,139.48 C372.04,139.48 372.66,139.24 373.1,138.76 C373.54,138.28 373.76,137.6 373.76,136.72 L373.76,136.72 L373.76,100.96 C373.76,86.64 367.08,79.48 353.72,79.48 C350.44,79.48 347.14,79.92 343.82,80.8 C340.5,81.68 337.44,82.96 334.64,84.64 C331.84,86.32 330.44,87.92 330.44,89.44 C330.44,90.08 330.66,90.62 331.1,91.06 C331.54,91.5 332.04,91.72 332.6,91.72 C333.24,91.72 334.06,91.38 335.06,90.7 C336.06,90.02 336.72,89.56 337.04,89.32 C338.8,88.04 341.18,86.9 344.18,85.9 C347.18,84.9 350.6,84.4 354.44,84.4 C359.32,84.4 362.9,85.7 365.18,88.3 C367.46,90.9 368.6,95.04 368.6,100.72 L368.6,100.72 L368.6,105.76 L366.2,105.76 C356.76,105.76 349.42,106.28 344.18,107.32 C338.94,108.36 335.18,110.06 332.9,112.42 C330.62,114.78 329.48,118.12 329.48,122.44 C329.48,125.64 330.38,128.58 332.18,131.26 C333.98,133.94 336.42,136.04 339.5,137.56 C342.58,139.08 345.96,139.84 349.64,139.84 Z M349.64,134.8 C345.48,134.8 342.04,133.62 339.32,131.26 C336.6,128.9 335.24,125.88 335.24,122.2 C335.24,119 336.12,116.58 337.88,114.94 C339.64,113.3 342.72,112.14 347.12,111.46 C351.52,110.78 357.92,110.44 366.32,110.44 L366.32,110.44 L368.6,110.44 L368.6,114.76 C368.6,118.6 367.78,122.04 366.14,125.08 C364.5,128.12 362.24,130.5 359.36,132.22 C356.48,133.94 353.24,134.8 349.64,134.8 Z M397.44,139.6 C398.24,139.6 398.86,139.36 399.3,138.88 C399.74,138.4 399.96,137.72 399.96,136.84 L399.96,136.84 L399.96,104.08 C399.96,99.2 401.44,94.88 404.4,91.12 C407.36,87.36 411.76,85.2 417.6,84.64 L417.6,84.64 L421.2,84.28 C422.88,84.04 423.72,83.24 423.72,81.88 C423.72,81.16 423.54,80.62 423.18,80.26 C422.82,79.9 422.16,79.72 421.2,79.72 L421.2,79.72 L420.36,79.72 L418.68,79.84 C409.64,80.48 403.4,84.24 399.96,91.12 L399.96,91.12 L399.96,82.48 C399.96,81.6 399.72,80.92 399.24,80.44 C398.76,79.96 398.16,79.72 397.44,79.72 C395.76,79.72 394.92,80.64 394.92,82.48 L394.92,82.48 L394.92,136.84 C394.92,137.72 395.14,138.4 395.58,138.88 C396.02,139.36 396.64,139.6 397.44,139.6 Z M461.92,139.6 C464.24,139.84 465.4,139.08 465.4,137.32 C465.4,135.88 464.52,135.08 462.76,134.92 L462.76,134.92 L459.52,134.68 C455.04,134.28 451.74,132.92 449.62,130.6 C447.5,128.28 446.44,124.4 446.44,118.96 L446.44,118.96 L446.44,85.24 L462.4,85.24 C463.04,85.24 463.54,85.04 463.9,84.64 C464.26,84.24 464.44,83.76 464.44,83.2 C464.44,82.56 464.24,82.02 463.84,81.58 C463.44,81.14 462.96,80.92 462.4,80.92 L462.4,80.92 L446.44,80.92 L446.44,64.96 C446.44,64.08 446.2,63.4 445.72,62.92 C445.24,62.44 444.64,62.2 443.92,62.2 C443.2,62.2 442.6,62.44 442.12,62.92 C441.64,63.4 441.4,64.08 441.4,64.96 L441.4,64.96 L441.4,80.92 L431.44,80.92 C430.88,80.92 430.4,81.14 430,81.58 C429.6,82.02 429.4,82.56 429.4,83.2 C429.4,83.76 429.6,84.24 430,84.64 C430.4,85.04 430.88,85.24 431.44,85.24 L431.44,85.24 L441.4,85.24 L441.4,118.84 C441.4,125.64 442.8,130.66 445.6,133.9 C448.4,137.14 452.8,138.96 458.8,139.36 L458.8,139.36 L461.92,139.6 Z M519.24,160.96 C520.2,160.96 520.92,160.48 521.4,159.52 L521.4,159.52 L555.84,83.2 C556,82.72 556.08,82.36 556.08,82.12 C556.08,81.4 555.84,80.82 555.36,80.38 C554.88,79.94 554.32,79.72 553.68,79.72 C552.64,79.72 551.88,80.28 551.4,81.4 L551.4,81.4 L528.6,132.64 L528.36,133.24 L505.2,81.04 C504.72,80.08 504.04,79.6 503.16,79.6 C502.44,79.6 501.8,79.84 501.24,80.32 C500.68,80.8 500.4,81.4 500.4,82.12 C500.4,82.36 500.48,82.72 500.64,83.2 L500.64,83.2 L525.84,138.88 L517.2,157.84 L516.96,158.8 C516.96,159.44 517.18,159.96 517.62,160.36 C518.06,160.76 518.6,160.96 519.24,160.96 Z M591.16,139.84 C596.28,139.84 600.8,138.6 604.72,136.12 C608.64,133.64 611.68,130.12 613.84,125.56 C616,121 617.08,115.68 617.08,109.6 C617.08,103.6 616,98.32 613.84,93.76 C611.68,89.2 608.64,85.68 604.72,83.2 C600.8,80.72 596.28,79.48 591.16,79.48 C586.04,79.48 581.52,80.72 577.6,83.2 C573.68,85.68 570.64,89.2 568.48,93.76 C566.32,98.32 565.24,103.6 565.24,109.6 C565.24,115.68 566.32,121 568.48,125.56 C570.64,130.12 573.68,133.64 577.6,136.12 C581.52,138.6 586.04,139.84 591.16,139.84 Z M591.04,134.92 C584.56,134.92 579.54,132.74 575.98,128.38 C572.42,124.02 570.64,117.76 570.64,109.6 C570.64,101.68 572.46,95.5 576.1,91.06 C579.74,86.62 584.76,84.4 591.16,84.4 C597.56,84.4 602.58,86.62 606.22,91.06 C609.86,95.5 611.68,101.68 611.68,109.6 C611.68,117.76 609.9,124.02 606.34,128.38 C602.78,132.74 597.68,134.92 591.04,134.92 Z M654.8,139.84 C659.2,139.84 663.14,138.82 666.62,136.78 C670.1,134.74 672.76,131.84 674.6,128.08 L674.6,128.08 L674.6,136.84 C674.6,137.64 674.82,138.3 675.26,138.82 C675.7,139.34 676.28,139.6 677,139.6 C678.68,139.6 679.52,138.68 679.52,136.84 L679.52,136.84 L679.52,82.36 C679.52,81.56 679.3,80.92 678.86,80.44 C678.42,79.96 677.8,79.72 677,79.72 C676.2,79.72 675.58,79.96 675.14,80.44 C674.7,80.92 674.48,81.56 674.48,82.36 L674.48,82.36 L674.48,114.04 C674.48,120.36 672.66,125.42 669.02,129.22 C665.38,133.02 660.56,134.92 654.56,134.92 C649.36,134.92 645.52,133.48 643.04,130.6 C640.56,127.72 639.32,123.24 639.32,117.16 L639.32,117.16 L639.32,82.36 C639.32,81.56 639.1,80.92 638.66,80.44 C638.22,79.96 637.6,79.72 636.8,79.72 C636,79.72 635.38,79.96 634.94,80.44 C634.5,80.92 634.28,81.56 634.28,82.36 L634.28,82.36 L634.28,117.64 C634.28,124.92 636.02,130.44 639.5,134.2 C642.98,137.96 648.08,139.84 654.8,139.84 Z M703.44,139.6 C704.24,139.6 704.86,139.36 705.3,138.88 C705.74,138.4 705.96,137.72 705.96,136.84 L705.96,136.84 L705.96,104.08 C705.96,99.2 707.44,94.88 710.4,91.12 C713.36,87.36 717.76,85.2 723.6,84.64 L723.6,84.64 L727.2,84.28 C728.88,84.04 729.72,83.24 729.72,81.88 C729.72,81.16 729.54,80.62 729.18,80.26 C728.82,79.9 728.16,79.72 727.2,79.72 L727.2,79.72 L726.36,79.72 L724.68,79.84 C715.64,80.48 709.4,84.24 705.96,91.12 L705.96,91.12 L705.96,82.48 C705.96,81.6 705.72,80.92 705.24,80.44 C704.76,79.96 704.16,79.72 703.44,79.72 C701.76,79.72 700.92,80.64 700.92,82.48 L700.92,82.48 L700.92,136.84 C700.92,137.72 701.14,138.4 701.58,138.88 C702.02,139.36 702.64,139.6 703.44,139.6 Z M774.08,139.6 C774.8,139.6 775.4,139.34 775.88,138.82 C776.36,138.3 776.6,137.64 776.6,136.84 L776.6,136.84 L776.6,56.56 C776.6,55.76 776.36,55.1 775.88,54.58 C775.4,54.06 774.8,53.8 774.08,53.8 C773.28,53.8 772.66,54.04 772.22,54.52 C771.78,55 771.56,55.68 771.56,56.56 L771.56,56.56 L771.56,136.84 C771.56,137.72 771.78,138.4 772.22,138.88 C772.66,139.36 773.28,139.6 774.08,139.6 Z M816.24,139.84 C820.48,139.84 824.26,138.84 827.58,136.84 C830.9,134.84 833.44,132 835.2,128.32 L835.2,128.32 L835.2,136.72 C835.2,137.52 835.44,138.18 835.92,138.7 C836.4,139.22 837.04,139.48 837.84,139.48 C838.64,139.48 839.26,139.24 839.7,138.76 C840.14,138.28 840.36,137.6 840.36,136.72 L840.36,136.72 L840.36,100.96 C840.36,86.64 833.68,79.48 820.32,79.48 C817.04,79.48 813.74,79.92 810.42,80.8 C807.1,81.68 804.04,82.96 801.24,84.64 C798.44,86.32 797.04,87.92 797.04,89.44 C797.04,90.08 797.26,90.62 797.7,91.06 C798.14,91.5 798.64,91.72 799.2,91.72 C799.84,91.72 800.66,91.38 801.66,90.7 C802.66,90.02 803.32,89.56 803.64,89.32 C805.4,88.04 807.78,86.9 810.78,85.9 C813.78,84.9 817.2,84.4 821.04,84.4 C825.92,84.4 829.5,85.7 831.78,88.3 C834.06,90.9 835.2,95.04 835.2,100.72 L835.2,100.72 L835.2,105.76 L832.8,105.76 C823.36,105.76 816.02,106.28 810.78,107.32 C805.54,108.36 801.78,110.06 799.5,112.42 C797.22,114.78 796.08,118.12 796.08,122.44 C796.08,125.64 796.98,128.58 798.78,131.26 C800.58,133.94 803.02,136.04 806.1,137.56 C809.18,139.08 812.56,139.84 816.24,139.84 Z M816.24,134.8 C812.08,134.8 808.64,133.62 805.92,131.26 C803.2,128.9 801.84,125.88 801.84,122.2 C801.84,119 802.72,116.58 804.48,114.94 C806.24,113.3 809.32,112.14 813.72,111.46 C818.12,110.78 824.52,110.44 832.92,110.44 L832.92,110.44 L835.2,110.44 L835.2,114.76 C835.2,118.6 834.38,122.04 832.74,125.08 C831.1,128.12 828.84,130.5 825.96,132.22 C823.08,133.94 819.84,134.8 816.24,134.8 Z M886.96,139.84 C892.08,139.84 896.6,138.58 900.52,136.06 C904.44,133.54 907.48,129.98 909.64,125.38 C911.8,120.78 912.88,115.44 912.88,109.36 C912.88,103.36 911.8,98.12 909.64,93.64 C907.48,89.16 904.44,85.68 900.52,83.2 C896.6,80.72 892.08,79.48 886.96,79.48 C882.08,79.48 877.9,80.56 874.42,82.72 C870.94,84.88 868.32,87.96 866.56,91.96 L866.56,91.96 L866.56,56.56 C866.56,55.68 866.34,55 865.9,54.52 C865.46,54.04 864.84,53.8 864.04,53.8 C862.36,53.8 861.52,54.72 861.52,56.56 L861.52,56.56 L861.52,136.72 C861.52,137.6 861.74,138.28 862.18,138.76 C862.62,139.24 863.24,139.48 864.04,139.48 C865.72,139.48 866.56,138.56 866.56,136.72 L866.56,136.72 L866.56,127.24 C868.32,131.32 870.94,134.44 874.42,136.6 C877.9,138.76 882.08,139.84 886.96,139.84 Z M886.96,134.92 C880.4,134.92 875.36,132.72 871.84,128.32 C868.32,123.92 866.56,117.68 866.56,109.6 C866.56,101.6 868.32,95.4 871.84,91 C875.36,86.6 880.36,84.4 886.84,84.4 C893.32,84.4 898.36,86.58 901.96,90.94 C905.56,95.3 907.36,101.44 907.36,109.36 C907.36,117.44 905.56,123.72 901.96,128.2 C898.36,132.68 893.36,134.92 886.96,134.92 Z" id="startyourlab" fill="#1E1E24" fill-rule="nonzero"></path>
        </g>
    </g>
</svg>