<?xml version="1.0" encoding="UTF-8"?>
<svg width="1080px" height="620px" viewBox="0 0 1080 620" version="1.1" xmlns="http://www.w3.org/2000/svg" xmlns:xlink="http://www.w3.org/1999/xlink">
    <title>Group 2</title>
    <defs>
        <filter id="filter-1">
            <feColorMatrix in="SourceGraphic" type="matrix" values="0 0 0 0 0.117647 0 0 0 0 0.117647 0 0 0 0 0.141176 0 0 0 1.000000 0"></feColorMatrix>
        </filter>
        <filter id="filter-2">
            <feColorMatrix in="SourceGraphic" type="matrix" values="0 0 0 0 0.117647 0 0 0 0 0.117647 0 0 0 0 0.141176 0 0 0 1.000000 0"></feColorMatrix>
        </filter>
        <filter id="filter-3">
            <feColorMatrix in="SourceGraphic" type="matrix" values="0 0 0 0 0.117647 0 0 0 0 0.117647 0 0 0 0 0.141176 0 0 0 1.000000 0"></feColorMatrix>
        </filter>
        <filter id="filter-4">
            <feColorMatrix in="SourceGraphic" type="matrix" values="0 0 0 0 0.117647 0 0 0 0 0.117647 0 0 0 0 0.141176 0 0 0 1.000000 0"></feColorMatrix>
        </filter>
        <filter id="filter-5">
            <feColorMatrix in="SourceGraphic" type="matrix" values="0 0 0 0 0.117647 0 0 0 0 0.117647 0 0 0 0 0.141176 0 0 0 1.000000 0"></feColorMatrix>
        </filter>
    </defs>
    <g id="Page-1" stroke="none" stroke-width="1" fill="none" fill-rule="evenodd">
        <g id="organization-network" transform="translate(-60.000000, -20.000000)">
            <g id="Group-2" transform="translate(60.000000, 20.000000)">
                <line x1="55" y1="410" x2="539.5" y2="127.5" id="Line-5" stroke="#383843" stroke-width="6" stroke-linecap="square"></line>
                <line x1="296.5" y1="464.5" x2="539.5" y2="127.5" id="Line-5" stroke="#383843" stroke-width="6" stroke-linecap="square"></line>
                <line x1="539" y1="498" x2="540.5" y2="127.5" id="Line-5" stroke="#383843" stroke-width="6" stroke-linecap="square"></line>
                <line x1="781.5" y1="464.5" x2="539.5" y2="127.5" id="Line-5" stroke="#383843" stroke-width="6" stroke-linecap="square"></line>
                <line x1="1025" y1="410" x2="540.5" y2="127.5" id="Line-5" stroke="#383843" stroke-width="6" stroke-linecap="square"></line>
                <g id="organization" transform="translate(380.000000, 0.000000)">
                    <g id="Group" transform="translate(0.000000, 37.000000)">
                        <rect id="Rectangle" stroke="#383843" stroke-width="6" fill="#F6F7F8" x="0" y="0" width="320" height="180" rx="12"></rect>
                        <text id="Your-Lab" font-family="Nunito-Bold, Nunito" font-size="32" font-weight="bold" letter-spacing="0.914285714" fill="#383843">
                            <tspan x="92.0588571" y="101">Your Lab</tspan>
                        </text>
                    </g>
                    <text id="ORGANIZATION" font-family="Nunito-Regular, Nunito" font-size="18" font-weight="normal" letter-spacing="0.514285714" fill="#383843">
                        <tspan x="89.6662857" y="18">ORGANIZATION</tspan>
                    </text>
                </g>
                <g id="user-bubble" transform="translate(0.000000, 350.000000)">
                    <circle id="Oval" stroke="#383843" stroke-width="6" fill="#6B9ABD" cx="55" cy="55" r="52"></circle>
                    <g filter="url(#filter-1)" id="user">
                        <g transform="translate(28.000000, 23.000000)">
                            <path d="M26.5396831,31.1172239 C30.8146174,31.1172239 34.5163734,29.5839844 37.5409609,26.558904 C40.5655483,23.5343166 42.098788,19.8335463 42.098788,15.5581192 C42.098788,11.2841706 40.5655483,7.58290736 37.5404681,4.55733429 C34.5153877,1.53323966 30.8141246,0 26.5396831,0 C22.264256,0 18.5634856,1.53323966 15.5388982,4.5578271 C12.5143107,7.58241454 10.9805783,11.2836777 10.9805783,15.5581192 C10.9805783,19.8335463 12.5143107,23.5348094 15.539391,26.5593968 C18.5644714,29.5834915 22.2657345,31.1172239 26.5396831,31.1172239 Z" id="Path" fill="#000000" fill-rule="nonzero"></path>
                            <path d="M53.7639274,49.6728242 C53.6766939,48.4140989 53.5002555,47.0410339 53.2405265,45.5910849 C52.9783331,44.1302936 52.6407345,42.7493429 52.236602,41.4871678 C51.8191626,40.1826081 51.2514056,38.8943123 50.5495948,37.6597364 C49.8211704,36.3783404 48.9655921,35.2625401 48.0055308,34.3443707 C47.0016063,33.3838164 45.7724517,32.6115289 44.351088,32.0482075 C42.9346525,31.4878431 41.3649424,31.2039646 39.6858207,31.2039646 C39.0263945,31.2039646 38.3886536,31.4745364 37.1570349,32.2763945 C36.3990399,32.7707177 35.5124124,33.3424175 34.5227804,33.9747371 C33.6765662,34.5139092 32.5302095,35.0190749 31.1142669,35.4764348 C29.7328234,35.9234447 28.3301877,36.1501534 26.945787,36.1501534 C25.5613865,36.1501534 24.1592436,35.9234447 22.7763216,35.4764348 C21.3618575,35.0195678 20.2155008,34.514402 19.3702724,33.97523 C18.3900043,33.3488244 17.502884,32.7771246 16.7335536,32.2759017 C15.5034134,31.4740436 14.8651796,31.2034718 14.2057535,31.2034718 C12.526139,31.2034718 10.9569217,31.4878431 9.54097915,32.0487004 C8.12060087,32.611036 6.89095363,33.3833236 5.8860434,34.3448635 C4.92647488,35.2635259 4.0704038,36.3788333 3.34296513,37.6597364 C2.6416472,38.8943123 2.07389019,40.1821152 1.65595794,41.4876606 C1.25231816,42.7498357 0.914719626,44.1302936 0.652526285,45.5910849 C0.392797136,47.0390625 0.216358822,48.4126205 0.129125355,49.6743027 C0.0433703271,50.9103571 0,52.1932317 0,53.4889202 C0,56.860963 1.07193709,59.5908294 3.18574766,61.6040997 C5.2734375,63.5907564 8.0358316,64.5986237 11.3950606,64.5986237 L42.4994706,64.5986237 C45.8586996,64.5986237 48.6201081,63.5912492 50.7082907,61.6040997 C52.8225942,59.592308 53.8945312,56.8619488 53.8945312,53.4884272 C53.8945312,52.1868246 53.8501752,50.9029644 53.7639274,49.6728242 L53.7639274,49.6728242 Z" id="Path" fill="#000000" fill-rule="nonzero"></path>
                        </g>
                    </g>
                    <text id="OWNER" font-family="Nunito-Regular, Nunito" font-size="16" font-weight="normal" letter-spacing="0.457142857" fill="#383843">
                        <tspan x="23.0091429" y="174">OWNER</tspan>
                    </text>
                    <text id="Director" font-family="Nunito-SemiBold, Nunito" font-size="24" font-weight="500" letter-spacing="1.37142857" fill="#383843">
                        <tspan x="5.82228571" y="142">Director</tspan>
                    </text>
                </g>
                <g id="user-bubble" transform="translate(243.000000, 410.000000)">
                    <circle id="Oval" stroke="#383843" stroke-width="6" fill="#9FDAA1" cx="55" cy="55" r="52"></circle>
                    <g filter="url(#filter-2)" id="user">
                        <g transform="translate(28.000000, 23.000000)">
                            <path d="M26.5396831,31.1172239 C30.8146174,31.1172239 34.5163734,29.5839844 37.5409609,26.558904 C40.5655483,23.5343166 42.098788,19.8335463 42.098788,15.5581192 C42.098788,11.2841706 40.5655483,7.58290736 37.5404681,4.55733429 C34.5153877,1.53323966 30.8141246,0 26.5396831,0 C22.264256,0 18.5634856,1.53323966 15.5388982,4.5578271 C12.5143107,7.58241454 10.9805783,11.2836777 10.9805783,15.5581192 C10.9805783,19.8335463 12.5143107,23.5348094 15.539391,26.5593968 C18.5644714,29.5834915 22.2657345,31.1172239 26.5396831,31.1172239 Z" id="Path" fill="#000000" fill-rule="nonzero"></path>
                            <path d="M53.7639274,49.6728242 C53.6766939,48.4140989 53.5002555,47.0410339 53.2405265,45.5910849 C52.9783331,44.1302936 52.6407345,42.7493429 52.236602,41.4871678 C51.8191626,40.1826081 51.2514056,38.8943123 50.5495948,37.6597364 C49.8211704,36.3783404 48.9655921,35.2625401 48.0055308,34.3443707 C47.0016063,33.3838164 45.7724517,32.6115289 44.351088,32.0482075 C42.9346525,31.4878431 41.3649424,31.2039646 39.6858207,31.2039646 C39.0263945,31.2039646 38.3886536,31.4745364 37.1570349,32.2763945 C36.3990399,32.7707177 35.5124124,33.3424175 34.5227804,33.9747371 C33.6765662,34.5139092 32.5302095,35.0190749 31.1142669,35.4764348 C29.7328234,35.9234447 28.3301877,36.1501534 26.945787,36.1501534 C25.5613865,36.1501534 24.1592436,35.9234447 22.7763216,35.4764348 C21.3618575,35.0195678 20.2155008,34.514402 19.3702724,33.97523 C18.3900043,33.3488244 17.502884,32.7771246 16.7335536,32.2759017 C15.5034134,31.4740436 14.8651796,31.2034718 14.2057535,31.2034718 C12.526139,31.2034718 10.9569217,31.4878431 9.54097915,32.0487004 C8.12060087,32.611036 6.89095363,33.3833236 5.8860434,34.3448635 C4.92647488,35.2635259 4.0704038,36.3788333 3.34296513,37.6597364 C2.6416472,38.8943123 2.07389019,40.1821152 1.65595794,41.4876606 C1.25231816,42.7498357 0.914719626,44.1302936 0.652526285,45.5910849 C0.392797136,47.0390625 0.216358822,48.4126205 0.129125355,49.6743027 C0.0433703271,50.9103571 0,52.1932317 0,53.4889202 C0,56.860963 1.07193709,59.5908294 3.18574766,61.6040997 C5.2734375,63.5907564 8.0358316,64.5986237 11.3950606,64.5986237 L42.4994706,64.5986237 C45.8586996,64.5986237 48.6201081,63.5912492 50.7082907,61.6040997 C52.8225942,59.592308 53.8945312,56.8619488 53.8945312,53.4884272 C53.8945312,52.1868246 53.8501752,50.9029644 53.7639274,49.6728242 L53.7639274,49.6728242 Z" id="Path" fill="#000000" fill-rule="nonzero"></path>
                        </g>
                    </g>
                </g>
                <text id="MEMBER" font-family="Nunito-Regular, Nunito" font-size="16" font-weight="normal" letter-spacing="0.457142857" fill="#383843">
                    <tspan x="262.980571" y="584">MEMBER</tspan>
                </text>
                <text id="MEMBER" font-family="Nunito-Regular, Nunito" font-size="16" font-weight="normal" letter-spacing="0.457142857" fill="#383843">
                    <tspan x="504.980571" y="614">MEMBER</tspan>
                </text>
                <text id="MEMBER" font-family="Nunito-Regular, Nunito" font-size="16" font-weight="normal" letter-spacing="0.457142857" fill="#383843">
                    <tspan x="747.980571" y="584">MEMBER</tspan>
                </text>
                <text id="MEMBER" font-family="Nunito-Regular, Nunito" font-size="16" font-weight="normal" letter-spacing="0.457142857" fill="#383843">
                    <tspan x="989.980571" y="524">MEMBER</tspan>
                </text>
                <text id="Lab-Manager" font-family="Nunito-SemiBold, Nunito" font-size="24" font-weight="500" letter-spacing="0.685714286" fill="#383843">
                    <tspan x="222.760571" y="552">Lab Manager</tspan>
                </text>
                <g id="user-bubble" transform="translate(728.000000, 410.000000)">
                    <circle id="Oval" stroke="#383843" stroke-width="6" fill="#9392E8" cx="55" cy="55" r="52"></circle>
                    <g filter="url(#filter-3)" id="user">
                        <g transform="translate(28.000000, 23.000000)">
                            <path d="M26.5396831,31.1172239 C30.8146174,31.1172239 34.5163734,29.5839844 37.5409609,26.558904 C40.5655483,23.5343166 42.098788,19.8335463 42.098788,15.5581192 C42.098788,11.2841706 40.5655483,7.58290736 37.5404681,4.55733429 C34.5153877,1.53323966 30.8141246,0 26.5396831,0 C22.264256,0 18.5634856,1.53323966 15.5388982,4.5578271 C12.5143107,7.58241454 10.9805783,11.2836777 10.9805783,15.5581192 C10.9805783,19.8335463 12.5143107,23.5348094 15.539391,26.5593968 C18.5644714,29.5834915 22.2657345,31.1172239 26.5396831,31.1172239 Z" id="Path" fill="#000000" fill-rule="nonzero"></path>
                            <path d="M53.7639274,49.6728242 C53.6766939,48.4140989 53.5002555,47.0410339 53.2405265,45.5910849 C52.9783331,44.1302936 52.6407345,42.7493429 52.236602,41.4871678 C51.8191626,40.1826081 51.2514056,38.8943123 50.5495948,37.6597364 C49.8211704,36.3783404 48.9655921,35.2625401 48.0055308,34.3443707 C47.0016063,33.3838164 45.7724517,32.6115289 44.351088,32.0482075 C42.9346525,31.4878431 41.3649424,31.2039646 39.6858207,31.2039646 C39.0263945,31.2039646 38.3886536,31.4745364 37.1570349,32.2763945 C36.3990399,32.7707177 35.5124124,33.3424175 34.5227804,33.9747371 C33.6765662,34.5139092 32.5302095,35.0190749 31.1142669,35.4764348 C29.7328234,35.9234447 28.3301877,36.1501534 26.945787,36.1501534 C25.5613865,36.1501534 24.1592436,35.9234447 22.7763216,35.4764348 C21.3618575,35.0195678 20.2155008,34.514402 19.3702724,33.97523 C18.3900043,33.3488244 17.502884,32.7771246 16.7335536,32.2759017 C15.5034134,31.4740436 14.8651796,31.2034718 14.2057535,31.2034718 C12.526139,31.2034718 10.9569217,31.4878431 9.54097915,32.0487004 C8.12060087,32.611036 6.89095363,33.3833236 5.8860434,34.3448635 C4.92647488,35.2635259 4.0704038,36.3788333 3.34296513,37.6597364 C2.6416472,38.8943123 2.07389019,40.1821152 1.65595794,41.4876606 C1.25231816,42.7498357 0.914719626,44.1302936 0.652526285,45.5910849 C0.392797136,47.0390625 0.216358822,48.4126205 0.129125355,49.6743027 C0.0433703271,50.9103571 0,52.1932317 0,53.4889202 C0,56.860963 1.07193709,59.5908294 3.18574766,61.6040997 C5.2734375,63.5907564 8.0358316,64.5986237 11.3950606,64.5986237 L42.4994706,64.5986237 C45.8586996,64.5986237 48.6201081,63.5912492 50.7082907,61.6040997 C52.8225942,59.592308 53.8945312,56.8619488 53.8945312,53.4884272 C53.8945312,52.1868246 53.8501752,50.9029644 53.7639274,49.6728242 L53.7639274,49.6728242 Z" id="Path" fill="#000000" fill-rule="nonzero"></path>
                        </g>
                    </g>
                </g>
                <text id="Research-Assistant" font-family="Nunito-SemiBold, Nunito" font-size="24" font-weight="500" letter-spacing="0.685714286" fill="#383843">
                    <tspan x="672.276571" y="552">Research Assistant</tspan>
                </text>
                <g id="user-bubble" transform="translate(970.000000, 350.000000)">
                    <circle id="Oval" stroke="#383843" stroke-width="6" fill="#FFEA47" cx="55" cy="55" r="52"></circle>
                    <g filter="url(#filter-4)" id="user">
                        <g transform="translate(28.000000, 23.000000)">
                            <path d="M26.5396831,31.1172239 C30.8146174,31.1172239 34.5163734,29.5839844 37.5409609,26.558904 C40.5655483,23.5343166 42.098788,19.8335463 42.098788,15.5581192 C42.098788,11.2841706 40.5655483,7.58290736 37.5404681,4.55733429 C34.5153877,1.53323966 30.8141246,0 26.5396831,0 C22.264256,0 18.5634856,1.53323966 15.5388982,4.5578271 C12.5143107,7.58241454 10.9805783,11.2836777 10.9805783,15.5581192 C10.9805783,19.8335463 12.5143107,23.5348094 15.539391,26.5593968 C18.5644714,29.5834915 22.2657345,31.1172239 26.5396831,31.1172239 Z" id="Path" fill="#000000" fill-rule="nonzero"></path>
                            <path d="M53.7639274,49.6728242 C53.6766939,48.4140989 53.5002555,47.0410339 53.2405265,45.5910849 C52.9783331,44.1302936 52.6407345,42.7493429 52.236602,41.4871678 C51.8191626,40.1826081 51.2514056,38.8943123 50.5495948,37.6597364 C49.8211704,36.3783404 48.9655921,35.2625401 48.0055308,34.3443707 C47.0016063,33.3838164 45.7724517,32.6115289 44.351088,32.0482075 C42.9346525,31.4878431 41.3649424,31.2039646 39.6858207,31.2039646 C39.0263945,31.2039646 38.3886536,31.4745364 37.1570349,32.2763945 C36.3990399,32.7707177 35.5124124,33.3424175 34.5227804,33.9747371 C33.6765662,34.5139092 32.5302095,35.0190749 31.1142669,35.4764348 C29.7328234,35.9234447 28.3301877,36.1501534 26.945787,36.1501534 C25.5613865,36.1501534 24.1592436,35.9234447 22.7763216,35.4764348 C21.3618575,35.0195678 20.2155008,34.514402 19.3702724,33.97523 C18.3900043,33.3488244 17.502884,32.7771246 16.7335536,32.2759017 C15.5034134,31.4740436 14.8651796,31.2034718 14.2057535,31.2034718 C12.526139,31.2034718 10.9569217,31.4878431 9.54097915,32.0487004 C8.12060087,32.611036 6.89095363,33.3833236 5.8860434,34.3448635 C4.92647488,35.2635259 4.0704038,36.3788333 3.34296513,37.6597364 C2.6416472,38.8943123 2.07389019,40.1821152 1.65595794,41.4876606 C1.25231816,42.7498357 0.914719626,44.1302936 0.652526285,45.5910849 C0.392797136,47.0390625 0.216358822,48.4126205 0.129125355,49.6743027 C0.0433703271,50.9103571 0,52.1932317 0,53.4889202 C0,56.860963 1.07193709,59.5908294 3.18574766,61.6040997 C5.2734375,63.5907564 8.0358316,64.5986237 11.3950606,64.5986237 L42.4994706,64.5986237 C45.8586996,64.5986237 48.6201081,63.5912492 50.7082907,61.6040997 C52.8225942,59.592308 53.8945312,56.8619488 53.8945312,53.4884272 C53.8945312,52.1868246 53.8501752,50.9029644 53.7639274,49.6728242 L53.7639274,49.6728242 Z" id="Path" fill="#000000" fill-rule="nonzero"></path>
                        </g>
                    </g>
                </g>
                <text id="Post-Doc" font-family="Nunito-SemiBold, Nunito" font-size="24" font-weight="500" letter-spacing="0.685714286" fill="#383843">
                    <tspan x="971.401143" y="492">Post-Doc</tspan>
                </text>
                <g id="user-bubble" transform="translate(485.000000, 440.000000)">
                    <circle id="Oval" stroke="#383843" stroke-width="6" fill="#E8A892" cx="55" cy="55" r="52"></circle>
                    <g filter="url(#filter-5)" id="user">
                        <g transform="translate(28.000000, 23.000000)">
                            <path d="M26.5396831,31.1172239 C30.8146174,31.1172239 34.5163734,29.5839844 37.5409609,26.558904 C40.5655483,23.5343166 42.098788,19.8335463 42.098788,15.5581192 C42.098788,11.2841706 40.5655483,7.58290736 37.5404681,4.55733429 C34.5153877,1.53323966 30.8141246,0 26.5396831,0 C22.264256,0 18.5634856,1.53323966 15.5388982,4.5578271 C12.5143107,7.58241454 10.9805783,11.2836777 10.9805783,15.5581192 C10.9805783,19.8335463 12.5143107,23.5348094 15.539391,26.5593968 C18.5644714,29.5834915 22.2657345,31.1172239 26.5396831,31.1172239 Z" id="Path" fill="#000000" fill-rule="nonzero"></path>
                            <path d="M53.7639274,49.6728242 C53.6766939,48.4140989 53.5002555,47.0410339 53.2405265,45.5910849 C52.9783331,44.1302936 52.6407345,42.7493429 52.236602,41.4871678 C51.8191626,40.1826081 51.2514056,38.8943123 50.5495948,37.6597364 C49.8211704,36.3783404 48.9655921,35.2625401 48.0055308,34.3443707 C47.0016063,33.3838164 45.7724517,32.6115289 44.351088,32.0482075 C42.9346525,31.4878431 41.3649424,31.2039646 39.6858207,31.2039646 C39.0263945,31.2039646 38.3886536,31.4745364 37.1570349,32.2763945 C36.3990399,32.7707177 35.5124124,33.3424175 34.5227804,33.9747371 C33.6765662,34.5139092 32.5302095,35.0190749 31.1142669,35.4764348 C29.7328234,35.9234447 28.3301877,36.1501534 26.945787,36.1501534 C25.5613865,36.1501534 24.1592436,35.9234447 22.7763216,35.4764348 C21.3618575,35.0195678 20.2155008,34.514402 19.3702724,33.97523 C18.3900043,33.3488244 17.502884,32.7771246 16.7335536,32.2759017 C15.5034134,31.4740436 14.8651796,31.2034718 14.2057535,31.2034718 C12.526139,31.2034718 10.9569217,31.4878431 9.54097915,32.0487004 C8.12060087,32.611036 6.89095363,33.3833236 5.8860434,34.3448635 C4.92647488,35.2635259 4.0704038,36.3788333 3.34296513,37.6597364 C2.6416472,38.8943123 2.07389019,40.1821152 1.65595794,41.4876606 C1.25231816,42.7498357 0.914719626,44.1302936 0.652526285,45.5910849 C0.392797136,47.0390625 0.216358822,48.4126205 0.129125355,49.6743027 C0.0433703271,50.9103571 0,52.1932317 0,53.4889202 C0,56.860963 1.07193709,59.5908294 3.18574766,61.6040997 C5.2734375,63.5907564 8.0358316,64.5986237 11.3950606,64.5986237 L42.4994706,64.5986237 C45.8586996,64.5986237 48.6201081,63.5912492 50.7082907,61.6040997 C52.8225942,59.592308 53.8945312,56.8619488 53.8945312,53.4884272 C53.8945312,52.1868246 53.8501752,50.9029644 53.7639274,49.6728242 L53.7639274,49.6728242 Z" id="Path" fill="#000000" fill-rule="nonzero"></path>
                        </g>
                    </g>
                </g>
                <text id="PhD-Student" font-family="Nunito-SemiBold, Nunito" font-size="24" font-weight="500" letter-spacing="0.685714286" fill="#383843">
                    <tspan x="466.256571" y="582">PhD Student</tspan>
                </text>
            </g>
        </g>
    </g>
</svg>