<?xml version="1.0" encoding="UTF-8"?>
<svg width="511px" height="492px" viewBox="0 0 511 492" version="1.1" xmlns="http://www.w3.org/2000/svg" xmlns:xlink="http://www.w3.org/1999/xlink">
    <title>books</title>
    <g id="Page-1" stroke="none" stroke-width="1" fill="none" fill-rule="evenodd">
        <g id="Artboard" transform="translate(-136.000000, -211.000000)" fill-rule="nonzero">
            <g id="books" transform="translate(136.000000, 211.000000)">
                <path d="M407.4716,276.298 C407.4716,242.522 421.055018,211.927 443.042988,189.689 L80.0663145,189.689 C55.4385098,189.689 35.4735801,209.693 35.4735801,234.369 L35.4735801,318.227 C35.4735801,342.903 55.4385098,362.907 80.0663145,362.907 L443.042988,362.907 C421.055018,340.669 407.4716,310.074 407.4716,276.298 L407.4716,276.298 Z" id="Path" fill="#FCFCFD"></path>
                <path d="M407.4716,276.298 C407.4716,242.522 421.055018,211.927 443.042988,189.689 L393.93509,189.689 C371.947119,211.927 358.363701,242.522 358.363701,276.298 C358.363701,310.074 371.947119,340.668 393.93509,362.907 L443.042988,362.907 C421.055018,340.669 407.4716,310.074 407.4716,276.298 Z" id="Path" fill="#DFE3E6"></path>
                <path d="M447.055137,370.404 L80.0663145,370.404 C51.3515078,370.404 27.9912227,346.998 27.9912227,318.227 L27.9912227,234.37 C27.9912227,205.599 51.3515078,182.193 80.0663145,182.193 L447.055137,182.193 C451.188049,182.193 454.537494,185.55 454.537494,189.69 C454.537494,193.831 451.188049,197.187 447.055137,197.187 L80.0663145,197.187 C59.6033594,197.187 42.9559375,213.867 42.9559375,234.37 L42.9559375,318.227 C42.9559375,338.73 59.6033594,355.41 80.0663145,355.41 L447.055137,355.41 C451.188049,355.41 454.537494,358.767 454.537494,362.907 C454.537494,367.047 451.188049,370.404 447.055137,370.404 Z" id="Path" fill="#DF8768"></path>
                <path d="M492.585037,174.695 L105.31191,174.695 C78.9045879,174.695 57.4964824,153.245 57.4964824,126.786 C57.4964824,100.327 78.9045879,78.877 105.31191,78.877 L492.585037,78.877 C492.585037,78.877 482.30216,104.682 482.30216,126.786 C482.30216,148.89 492.585037,174.695 492.585037,174.695 Z" id="Path" fill="#FCFCFD"></path>
                <path d="M492.584039,78.877 L456.333979,78.877 C456.333979,78.877 446.051102,104.682 446.051102,126.786 C446.051102,148.89 456.333979,174.695 456.333979,174.695 L492.584039,174.695 C492.584039,174.695 482.301162,148.89 482.301162,126.786 C482.301162,104.682 492.584039,78.877 492.584039,78.877 Z" id="Path" fill="#DFE3E6"></path>
                <path d="M500.952662,182.192 L105.31191,182.192 C74.8205801,182.192 50.014125,157.337 50.014125,126.786 C50.014125,96.235 74.8205801,71.38 105.31191,71.38 L500.95366,71.38 C505.086572,71.38 508.436018,74.737 508.436018,78.877 C508.436018,83.017 505.086572,86.374 500.95366,86.374 L105.31191,86.374 C83.0724316,86.374 64.9798379,104.503 64.9798379,126.785 C64.9798379,149.068 83.0734297,167.197 105.31191,167.197 L500.95366,167.197 C505.086572,167.197 508.436018,170.554 508.436018,174.694 C508.436018,178.836 505.085574,182.192 500.952662,182.192 Z" id="Path" fill="#88D18A"></path>
                <path d="M494.288703,483.571 L60.2141641,483.571 C31.0911562,483.571 7.48235742,459.916 7.48235742,430.736 C7.48235742,401.556 31.0911562,377.901 60.2141641,377.901 L494.288703,377.901 C494.288703,377.901 482.948895,406.36 482.948895,430.736 C482.948895,455.112 494.288703,483.571 494.288703,483.571 Z" id="Path" fill="#FCFCFD"></path>
                <path d="M494.288703,377.901 L454.311936,377.901 C454.311936,377.901 442.972127,406.36 442.972127,430.736 C442.972127,455.112 454.311936,483.571 454.311936,483.571 L494.288703,483.571 C494.288703,483.571 482.948895,455.112 482.948895,430.736 C482.948895,406.36 494.288703,377.901 494.288703,377.901 Z" id="Path" fill="#DFE3E6"></path>
                <path d="M503.517643,491.068 L60.2141641,491.068 C27.0121387,491.068 0,464.003 0,430.736 C0,397.469 27.0121387,370.404 60.2141641,370.404 L503.517643,370.404 C507.650555,370.404 511,373.761 511,377.901 C511,382.041 507.650555,385.398 503.517643,385.398 L60.2141641,385.398 C35.2639902,385.398 14.9657129,405.736 14.9657129,430.735 C14.9657129,455.734 35.2639902,476.072 60.2141641,476.072 L503.517643,476.072 C507.650555,476.072 511,479.429 511,483.569 C511,487.709 507.650555,491.068 503.517643,491.068 L503.517643,491.068 Z" id="Path" fill="#4C82A9"></path>
                <path d="M434.351996,36.156 C434.351996,25.279 438.839215,15.458 446.0521,8.43 L35.5065156,8.43 C20.2234238,8.43 7.83466797,20.843 7.83466797,36.156 C7.83466797,51.469 20.2244219,63.883 35.5075137,63.883 L446.0521,63.883 C438.839215,56.855 434.351996,47.033 434.351996,36.156 Z" id="Path" fill="#FCFCFD"></path>
                <path d="M434.351996,36.156 C434.351996,25.279 438.839215,15.458 446.0521,8.43 L408.17123,8.43 C400.958346,15.458 396.471127,25.28 396.471127,36.156 C396.471127,47.033 400.958346,56.855 408.17123,63.883 L446.0521,63.883 C438.839215,56.855 434.351996,47.033 434.351996,36.156 Z" id="Path" fill="#DFE3E6"></path>
                <path d="M446.0521,71.38 L35.5065156,71.38 C16.1214512,71.38 0.3513125,55.579 0.3513125,36.156 C0.3513125,16.733 16.1214512,0.932 35.5065156,0.932 L446.051102,0.932 C450.184014,0.932 453.534457,4.289 453.534457,8.429 C453.534457,12.569 450.184014,15.926 446.051102,15.926 L35.5065156,15.926 C24.3733027,15.926 15.3170254,25.001 15.3170254,36.155 C15.3170254,47.309 24.3743008,56.384 35.5065156,56.384 L446.0521,56.384 C450.185012,56.384 453.534457,59.741 453.534457,63.881 C453.534457,68.023 450.185012,71.38 446.0521,71.38 Z" id="Path" fill="#AD7A99"></path>
                <path d="M384.601355,280.266 L220.130217,280.266 C215.997305,280.266 212.647859,276.909 212.647859,272.769 C212.647859,268.628 215.998303,265.272 220.130217,265.272 L384.601355,265.272 C388.734268,265.272 392.083713,268.629 392.083713,272.769 C392.083713,276.91 388.734268,280.266 384.601355,280.266 Z" id="Path" fill="#DFE3E6"></path>
                <path d="M330.301617,448.24 L296.685402,448.24 C292.55249,448.24 289.203045,444.883 289.203045,440.743 C289.203045,436.603 292.55249,433.246 296.685402,433.246 L330.301617,433.246 C334.434529,433.246 337.783975,436.603 337.783975,440.743 C337.783975,444.883 334.434529,448.24 330.301617,448.24 Z" id="Path" fill="#DFE3E6"></path>
                <path d="M263.917527,448.24 L136.78432,448.24 C132.651408,448.24 129.301963,444.883 129.301963,440.743 C129.301963,436.603 132.652406,433.246 136.78432,433.246 L263.918525,433.246 C268.051438,433.246 271.400883,436.603 271.400883,440.743 C271.400883,444.883 268.050439,448.24 263.917527,448.24 Z" id="Path" fill="#DFE3E6"></path>
                <path d="M265.482465,121.851 L246.253096,121.851 C242.120184,121.851 238.770738,118.494 238.770738,114.354 C238.770738,110.214 242.121182,106.857 246.253096,106.857 L265.482465,106.857 C269.615377,106.857 272.964822,110.214 272.964822,114.354 C272.964822,118.494 269.615377,121.851 265.482465,121.851 Z" id="Path" fill="#DFE3E6"></path>
                <g id="Group" transform="translate(114.775391, 242.000000)">
                    <path d="M62.8330391,78.284 L34.8068848,57.747 L6.78073047,78.284 C4.16285352,80.203 0.478064453,78.329 0.478064453,75.079 L0.478064453,0.394 L69.1347072,0.394 L69.1347072,75.079 C69.1357051,78.329 65.4519141,80.202 62.8330391,78.284 Z" id="Path" fill="#A31621"></path>
                    <path d="M34.8068848,0.393 L34.8068848,57.746 L62.8330391,78.283 C65.450916,80.202 69.1357051,78.328 69.1357051,75.078 L69.1357051,0.393 L34.8068848,0.393 Z" id="Path" fill="#8B131C"></path>
                </g>
                <path d="M213.395396,249.891 L89.6665273,249.891 C85.5336152,249.891 82.1841699,246.534 82.1841699,242.394 C82.1841699,238.254 85.5346133,234.897 89.6665273,234.897 L213.395396,234.897 C217.528309,234.897 220.877754,238.254 220.877754,242.394 C220.877754,246.534 217.528309,249.891 213.395396,249.891 Z" id="Path" fill="#DFE3E6"></path>
                <path d="M306.73773,114.353 L306.73773,224.262 C306.73773,227.114 310.26383,228.446 312.143152,226.304 L324.43909,212.285 C325.229543,211.384 326.630801,211.384 327.422252,212.285 L339.718189,226.304 C341.597512,228.447 345.123611,227.115 345.123611,224.262 L345.123611,114.353 L306.73773,114.353 Z" id="Path" fill="#A31621"></path>
                <path d="M325.930172,114.353 L325.930172,211.608 C326.4781,211.608 327.026027,211.833 327.421254,212.284 L339.717191,226.303 C341.596514,228.446 345.122613,227.114 345.122613,224.261 L345.122613,114.353 L325.930172,114.353 Z" id="Path" fill="#8B131C"></path>
                <path d="M420.414271,121.851 L296.685402,121.851 C292.55249,121.851 289.203045,118.494 289.203045,114.354 C289.203045,110.214 292.55249,106.857 296.685402,106.857 L420.414271,106.857 C424.547184,106.857 427.896629,110.214 427.896629,114.354 C427.896629,118.494 424.547184,121.851 420.414271,121.851 Z" id="Path" fill="#DFE3E6"></path>
            </g>
        </g>
    </g>
</svg>